<?xml version="1.0" encoding="UTF-8"?>
<!DOCTYPE svg PUBLIC "-//W3C//DTD SVG 1.1//EN" "http://www.w3.org/Graphics/SVG/1.1/DTD/svg11.dtd">
<svg xmlns="http://www.w3.org/2000/svg" version="1.1" width="186px" height="54px" style="shape-rendering:geometricPrecision; text-rendering:geometricPrecision; image-rendering:optimizeQuality; fill-rule:evenodd; clip-rule:evenodd" xmlns:xlink="http://www.w3.org/1999/xlink">
<g><path style="opacity:1" fill="#212121" d="M -0.5,-0.5 C 61.5,-0.5 123.5,-0.5 185.5,-0.5C 185.5,14.5 185.5,29.5 185.5,44.5C 184.178,44.33 183.011,44.6634 182,45.5C 181.802,43.6183 181.302,41.9516 180.5,40.5C 178.833,40.5 177.167,40.5 175.5,40.5C 176.552,38.744 178.219,38.0773 180.5,38.5C 180.5,37.1667 180.5,35.8333 180.5,34.5C 177.642,33.834 174.642,33.1674 171.5,32.5C 171.863,31.8165 172.196,31.1499 172.5,30.5C 171.081,29.5489 169.415,29.2155 167.5,29.5C 167.5,28.5 167.5,27.5 167.5,26.5C 171.833,26.5 176.167,26.5 180.5,26.5C 180.814,18.9129 180.481,11.4129 179.5,4C 168.757,3.19165 158.09,3.35832 147.5,4.5C 146.686,6.63104 146.186,8.96437 146,11.5C 145.517,10.552 145.351,9.55198 145.5,8.5C 96.8333,8.5 48.1667,8.5 -0.5,8.5C -0.5,5.5 -0.5,2.5 -0.5,-0.5 Z"/></g>
<g><path style="opacity:1" fill="#d7d7d7" d="M 172.5,30.5 C 167.167,30.5 161.833,30.5 156.5,30.5C 157.833,29.8333 159.167,29.1667 160.5,28.5C 161.043,28.44 161.376,28.1067 161.5,27.5C 156.952,26.8076 152.452,26.1409 148,25.5C 147.5,18.5079 147.334,11.5079 147.5,4.5C 158.09,3.35832 168.757,3.19165 179.5,4C 180.481,11.4129 180.814,18.9129 180.5,26.5C 176.167,26.5 171.833,26.5 167.5,26.5C 167.5,27.5 167.5,28.5 167.5,29.5C 169.415,29.2155 171.081,29.5489 172.5,30.5 Z"/></g>
<g><path style="opacity:1" fill="#1c1c1c" d="M 147.5,4.5 C 147.334,11.5079 147.5,18.5079 148,25.5C 152.452,26.1409 156.952,26.8076 161.5,27.5C 161.376,28.1067 161.043,28.44 160.5,28.5C 107.016,28.4487 53.3489,28.4487 -0.5,28.5C -0.5,21.8333 -0.5,15.1667 -0.5,8.5C 48.1667,8.5 96.8333,8.5 145.5,8.5C 145.351,9.55198 145.517,10.552 146,11.5C 146.186,8.96437 146.686,6.63104 147.5,4.5 Z"/></g>
<g><path style="opacity:1" fill="#1d1d1d" d="M 150.5,6.5 C 159.5,6.5 168.5,6.5 177.5,6.5C 177.5,11.8333 177.5,17.1667 177.5,22.5C 168.5,22.5 159.5,22.5 150.5,22.5C 150.5,17.1667 150.5,11.8333 150.5,6.5 Z"/></g>
<g><path style="opacity:1" fill="#1a1a1a" d="M 160.5,28.5 C 159.167,29.1667 157.833,29.8333 156.5,30.5C 160.353,31.1663 164.353,31.833 168.5,32.5C 166.369,33.1687 164.369,33.8354 162.5,34.5C 160.983,34.5106 159.816,35.1772 159,36.5C 158.333,40.8333 158.333,45.1667 159,49.5C 159.816,50.8228 160.983,51.4894 162.5,51.5C 164.607,52.4682 166.941,52.8016 169.5,52.5C 169.768,50.901 169.434,49.5676 168.5,48.5C 166.833,48.5 165.167,48.5 163.5,48.5C 163.5,45.1667 163.5,41.8333 163.5,38.5C 165.167,38.5 166.833,38.5 168.5,38.5C 169.017,36.4905 169.684,35.1571 170.5,34.5C 170.5,40.5 170.5,46.5 170.5,52.5C 174.167,52.5 177.833,52.5 181.5,52.5C 181.768,50.901 181.434,49.5676 180.5,48.5C 178.833,48.5 177.167,48.5 175.5,48.5C 175.5,47.5 175.5,46.5 175.5,45.5C 177.167,45.5 178.833,45.5 180.5,45.5C 180.5,43.8333 180.5,42.1667 180.5,40.5C 181.302,41.9516 181.802,43.6183 182,45.5C 183.011,44.6634 184.178,44.33 185.5,44.5C 185.5,47.5 185.5,50.5 185.5,53.5C 123.5,53.5 61.5,53.5 -0.5,53.5C -0.5,45.1667 -0.5,36.8333 -0.5,28.5C 53.3489,28.4487 107.016,28.4487 160.5,28.5 Z"/></g>
<g><path style="opacity:1" fill="#3c3c3c" d="M 156.5,30.5 C 161.833,30.5 167.167,30.5 172.5,30.5C 172.196,31.1499 171.863,31.8165 171.5,32.5C 174.642,33.1674 177.642,33.834 180.5,34.5C 177.5,34.5 174.5,34.5 171.5,34.5C 171.167,34.5 170.833,34.5 170.5,34.5C 169.684,35.1571 169.017,36.4905 168.5,38.5C 168.5,37.1667 168.5,35.8333 168.5,34.5C 166.5,34.5 164.5,34.5 162.5,34.5C 164.369,33.8354 166.369,33.1687 168.5,32.5C 164.353,31.833 160.353,31.1663 156.5,30.5 Z"/></g>
<g><path style="opacity:1" fill="#f2f2f2" d="M 9.5,47.5 C 8.56552,48.5676 8.23219,49.901 8.5,51.5C 7.16667,51.5 5.83333,51.5 4.5,51.5C 4.5,45.8333 4.5,40.1667 4.5,34.5C 8.10636,34.2108 11.6064,34.5442 15,35.5C 15.6667,38.8333 15.6667,42.1667 15,45.5C 13.4157,46.8613 11.5824,47.528 9.5,47.5 Z"/></g>
<g><path style="opacity:1" fill="#f3f3f3" d="M 18.5,34.5 C 29.4301,32.2473 32.7635,36.0807 28.5,46C 29.0294,47.5589 29.696,49.0589 30.5,50.5C 28.9547,51.4519 27.288,51.7852 25.5,51.5C 24.052,45.031 23.052,45.031 22.5,51.5C 21.1667,51.5 19.8333,51.5 18.5,51.5C 18.5,45.8333 18.5,40.1667 18.5,34.5 Z"/></g>
<g><path style="opacity:1" fill="#e5e5e5" d="M 35.5,33.5 C 38.4822,33.1044 41.1489,33.7711 43.5,35.5C 44.6623,40.467 44.8289,45.467 44,50.5C 39.982,53.4386 36.3153,53.1053 33,49.5C 32.3333,45.1667 32.3333,40.8333 33,36.5C 34.045,35.6266 34.8783,34.6266 35.5,33.5 Z"/></g>
<g><path style="opacity:1" fill="#fbfbfb" d="M 58.5,37.5 C 57.1667,37.5 55.8333,37.5 54.5,37.5C 54.5,42.1667 54.5,46.8333 54.5,51.5C 53.5,51.5 52.5,51.5 51.5,51.5C 51.5,46.8333 51.5,42.1667 51.5,37.5C 49.8333,37.5 48.1667,37.5 46.5,37.5C 46.5,36.5 46.5,35.5 46.5,34.5C 50.5,34.5 54.5,34.5 58.5,34.5C 58.5,35.5 58.5,36.5 58.5,37.5 Z"/></g>
<g><path style="opacity:1" fill="#f8f8f8" d="M 69.5,37.5 C 67.8333,37.5 66.1667,37.5 64.5,37.5C 64.5,38.8333 64.5,40.1667 64.5,41.5C 66.1667,41.5 67.8333,41.5 69.5,41.5C 69.5,42.5 69.5,43.5 69.5,44.5C 67.8333,44.5 66.1667,44.5 64.5,44.5C 64.5,45.8333 64.5,47.1667 64.5,48.5C 66.1667,48.5 67.8333,48.5 69.5,48.5C 69.5,49.5 69.5,50.5 69.5,51.5C 66.5,51.5 63.5,51.5 60.5,51.5C 60.5,45.8333 60.5,40.1667 60.5,34.5C 63.5,34.5 66.5,34.5 69.5,34.5C 69.5,35.5 69.5,36.5 69.5,37.5 Z"/></g>
<g><path style="opacity:1" fill="#f6f6f6" d="M 75.5,34.5 C 77.5,34.5 79.5,34.5 81.5,34.5C 81.5,35.5 81.5,36.5 81.5,37.5C 79.901,37.2322 78.5676,37.5655 77.5,38.5C 76.3622,41.3035 76.1955,44.3035 77,47.5C 78.6995,48.4061 80.5328,48.7394 82.5,48.5C 82.5,49.5 82.5,50.5 82.5,51.5C 78.9929,52.0065 75.8263,51.3398 73,49.5C 72.3333,45.1667 72.3333,40.8333 73,36.5C 73.7083,35.6195 74.5416,34.9528 75.5,34.5 Z"/></g>
<g><path style="opacity:1" fill="#fbfbfb" d="M 95.5,37.5 C 94.1667,37.5 92.8333,37.5 91.5,37.5C 91.5,42.1667 91.5,46.8333 91.5,51.5C 90.5,51.5 89.5,51.5 88.5,51.5C 88.5,46.8333 88.5,42.1667 88.5,37.5C 86.8333,37.5 85.1667,37.5 83.5,37.5C 83.5,36.5 83.5,35.5 83.5,34.5C 87.5,34.5 91.5,34.5 95.5,34.5C 95.5,35.5 95.5,36.5 95.5,37.5 Z"/></g>
<g><path style="opacity:1" fill="#e1e1e1" d="M 99.5,34.5 C 109.147,33.9978 109.814,35.6645 101.5,39.5C 102.381,40.9705 103.714,41.8038 105.5,42C 110.004,47.512 108.671,51.012 101.5,52.5C 98.0886,52.597 96.7553,50.9304 97.5,47.5C 99.604,47.7989 101.604,47.4656 103.5,46.5C 101.063,45.1966 98.8962,43.5299 97,41.5C 96.3333,40.1667 96.3333,38.8333 97,37.5C 98.045,36.6266 98.8783,35.6266 99.5,34.5 Z"/></g>
<g><path style="opacity:1" fill="#fafafa" d="M 119.5,37.5 C 117.833,37.5 116.167,37.5 114.5,37.5C 114.5,38.8333 114.5,40.1667 114.5,41.5C 115.833,41.5 117.167,41.5 118.5,41.5C 118.5,42.5 118.5,43.5 118.5,44.5C 117.167,44.5 115.833,44.5 114.5,44.5C 114.5,45.8333 114.5,47.1667 114.5,48.5C 116.167,48.5 117.833,48.5 119.5,48.5C 119.5,49.5 119.5,50.5 119.5,51.5C 116.5,51.5 113.5,51.5 110.5,51.5C 110.5,45.8333 110.5,40.1667 110.5,34.5C 113.5,34.5 116.5,34.5 119.5,34.5C 119.5,35.5 119.5,36.5 119.5,37.5 Z"/></g>
<g><path style="opacity:1" fill="#f1f1f1" d="M 122.5,34.5 C 133.43,32.2473 136.763,36.0807 132.5,46C 132.989,47.1385 133.322,48.3052 133.5,49.5C 132.817,51.1765 131.483,51.8432 129.5,51.5C 127.971,45.004 126.971,45.004 126.5,51.5C 125.167,51.5 123.833,51.5 122.5,51.5C 122.5,45.8333 122.5,40.1667 122.5,34.5 Z"/></g>
<g><path style="opacity:1" fill="#e6e6e6" d="M 135.5,34.5 C 137.288,34.2148 138.955,34.5481 140.5,35.5C 141.145,38.2283 141.979,40.8949 143,43.5C 143.269,40.6484 144.103,37.9818 145.5,35.5C 146.689,34.5713 148.022,34.238 149.5,34.5C 148.039,40.4729 146.705,46.4729 145.5,52.5C 143.712,52.7852 142.045,52.4519 140.5,51.5C 139.029,45.755 137.362,40.0883 135.5,34.5 Z"/></g>
<g><path style="opacity:1" fill="#e5e5e5" d="M 162.5,34.5 C 164.5,34.5 166.5,34.5 168.5,34.5C 168.5,35.8333 168.5,37.1667 168.5,38.5C 166.833,38.5 165.167,38.5 163.5,38.5C 163.5,41.8333 163.5,45.1667 163.5,48.5C 165.167,48.5 166.833,48.5 168.5,48.5C 168.5,49.5 168.5,50.5 168.5,51.5C 166.5,51.5 164.5,51.5 162.5,51.5C 160.983,51.4894 159.816,50.8228 159,49.5C 158.333,45.1667 158.333,40.8333 159,36.5C 159.816,35.1772 160.983,34.5106 162.5,34.5 Z"/></g>
<g><path style="opacity:1" fill="#f5f5f5" d="M 171.5,34.5 C 174.5,34.5 177.5,34.5 180.5,34.5C 180.5,35.8333 180.5,37.1667 180.5,38.5C 178.219,38.0773 176.552,38.744 175.5,40.5C 176.568,41.4345 177.901,41.7678 179.5,41.5C 179.5,42.5 179.5,43.5 179.5,44.5C 177.901,44.2322 176.568,44.5655 175.5,45.5C 175.5,46.5 175.5,47.5 175.5,48.5C 177.167,48.5 178.833,48.5 180.5,48.5C 180.5,49.5 180.5,50.5 180.5,51.5C 177.5,51.5 174.5,51.5 171.5,51.5C 171.5,45.8333 171.5,40.1667 171.5,34.5 Z"/></g>
<g><path style="opacity:1" fill="#767676" d="M 170.5,34.5 C 170.833,34.5 171.167,34.5 171.5,34.5C 171.5,40.1667 171.5,45.8333 171.5,51.5C 174.5,51.5 177.5,51.5 180.5,51.5C 180.5,50.5 180.5,49.5 180.5,48.5C 181.434,49.5676 181.768,50.901 181.5,52.5C 177.833,52.5 174.167,52.5 170.5,52.5C 170.5,46.5 170.5,40.5 170.5,34.5 Z"/></g>
<g><path style="opacity:1" fill="#7d7d7d" d="M 75.5,34.5 C 77.6074,33.5318 79.9407,33.1984 82.5,33.5C 82.5,35.1667 82.5,36.8333 82.5,38.5C 80.8333,38.5 79.1667,38.5 77.5,38.5C 78.5676,37.5655 79.901,37.2322 81.5,37.5C 81.5,36.5 81.5,35.5 81.5,34.5C 79.5,34.5 77.5,34.5 75.5,34.5 Z"/></g>
<g><path style="opacity:1" fill="#646464" d="M 122.5,34.5 C 122.5,40.1667 122.5,45.8333 122.5,51.5C 123.833,51.5 125.167,51.5 126.5,51.5C 125.081,52.4511 123.415,52.7845 121.5,52.5C 121.177,46.31 121.51,40.31 122.5,34.5 Z"/></g>
<g><path style="opacity:1" fill="#8b8b8b" d="M 11.5,38.5 C 9.74395,39.5521 9.07729,41.2188 9.5,43.5C 8.53862,41.7354 8.20528,39.7354 8.5,37.5C 9.79105,37.2627 10.791,37.596 11.5,38.5 Z"/></g>
<g><path style="opacity:1" fill="#151515" d="M 11.5,38.5 C 11.9227,40.7812 11.256,42.4479 9.5,43.5C 9.07729,41.2188 9.74395,39.5521 11.5,38.5 Z"/></g>
<g><path style="opacity:1" fill="#626262" d="M 25.5,38.5 C 24.4138,38.62 23.7472,39.2867 23.5,40.5C 23.7472,41.7133 24.4138,42.38 25.5,42.5C 24.791,43.404 23.791,43.7373 22.5,43.5C 22.5,41.5 22.5,39.5 22.5,37.5C 23.791,37.2627 24.791,37.596 25.5,38.5 Z"/></g>
<g><path style="opacity:1" fill="#202020" d="M 37.5,37.5 C 38.5,37.5 39.5,37.5 40.5,37.5C 40.5,41.1667 40.5,44.8333 40.5,48.5C 39.5,48.5 38.5,48.5 37.5,48.5C 37.5,44.8333 37.5,41.1667 37.5,37.5 Z"/></g>
<g><path style="opacity:1" fill="#969696" d="M 46.5,37.5 C 48.1667,37.5 49.8333,37.5 51.5,37.5C 51.5,42.1667 51.5,46.8333 51.5,51.5C 52.5,51.5 53.5,51.5 54.5,51.5C 54.5,46.8333 54.5,42.1667 54.5,37.5C 55.8333,37.5 57.1667,37.5 58.5,37.5C 57.791,38.404 56.791,38.7373 55.5,38.5C 55.5,43.1667 55.5,47.8333 55.5,52.5C 53.8333,52.5 52.1667,52.5 50.5,52.5C 50.5,47.8333 50.5,43.1667 50.5,38.5C 48.901,38.7678 47.5676,38.4345 46.5,37.5 Z"/></g>
<g><path style="opacity:1" fill="#bdbdbd" d="M 83.5,37.5 C 85.1667,37.5 86.8333,37.5 88.5,37.5C 88.5,42.1667 88.5,46.8333 88.5,51.5C 88.1667,51.5 87.8333,51.5 87.5,51.5C 87.5,47.1667 87.5,42.8333 87.5,38.5C 85.901,38.7678 84.5676,38.4345 83.5,37.5 Z"/></g>
<g><path style="opacity:1" fill="#878787" d="M 95.5,37.5 C 94.791,38.404 93.791,38.7373 92.5,38.5C 92.5,43.1667 92.5,47.8333 92.5,52.5C 90.5853,52.7845 88.9187,52.4511 87.5,51.5C 87.8333,51.5 88.1667,51.5 88.5,51.5C 89.5,51.5 90.5,51.5 91.5,51.5C 91.5,46.8333 91.5,42.1667 91.5,37.5C 92.8333,37.5 94.1667,37.5 95.5,37.5 Z"/></g>
<g><path style="opacity:1" fill="#5d5d5d" d="M 129.5,38.5 C 128.414,38.62 127.747,39.2867 127.5,40.5C 127.747,41.7133 128.414,42.38 129.5,42.5C 128.791,43.404 127.791,43.7373 126.5,43.5C 126.5,41.5 126.5,39.5 126.5,37.5C 127.791,37.2627 128.791,37.596 129.5,38.5 Z"/></g>
<g><path style="opacity:1" fill="#161616" d="M 129.5,38.5 C 129.5,39.8333 129.5,41.1667 129.5,42.5C 128.414,42.38 127.747,41.7133 127.5,40.5C 127.747,39.2867 128.414,38.62 129.5,38.5 Z"/></g>
<g><path style="opacity:1" fill="#b2b2b2" d="M 152.5,34.5 C 152.5,40.1667 152.5,45.8333 152.5,51.5C 153.5,51.5 154.5,51.5 155.5,51.5C 155.5,45.8333 155.5,40.1667 155.5,34.5C 156.49,40.31 156.823,46.31 156.5,52.5C 154.833,52.5 153.167,52.5 151.5,52.5C 151.177,46.31 151.51,40.31 152.5,34.5 Z"/></g>
<g><path style="opacity:1" fill="#fefefe" d="M 152.5,34.5 C 153.5,34.5 154.5,34.5 155.5,34.5C 155.5,40.1667 155.5,45.8333 155.5,51.5C 154.5,51.5 153.5,51.5 152.5,51.5C 152.5,45.8333 152.5,40.1667 152.5,34.5 Z"/></g>
<g><path style="opacity:1" fill="#121212" d="M 25.5,38.5 C 25.5,39.8333 25.5,41.1667 25.5,42.5C 24.4138,42.38 23.7472,41.7133 23.5,40.5C 23.7472,39.2867 24.4138,38.62 25.5,38.5 Z"/></g>
<g><path style="opacity:1" fill="#787878" d="M 69.5,37.5 C 68.2825,38.1614 66.9492,38.8281 65.5,39.5C 66.9492,40.1719 68.2825,40.8386 69.5,41.5C 67.8333,41.5 66.1667,41.5 64.5,41.5C 64.5,40.1667 64.5,38.8333 64.5,37.5C 66.1667,37.5 67.8333,37.5 69.5,37.5 Z"/></g>
<g><path style="opacity:1" fill="#727272" d="M 175.5,40.5 C 177.167,40.5 178.833,40.5 180.5,40.5C 180.5,42.1667 180.5,43.8333 180.5,45.5C 178.833,45.5 177.167,45.5 175.5,45.5C 176.568,44.5655 177.901,44.2322 179.5,44.5C 179.5,43.5 179.5,42.5 179.5,41.5C 177.901,41.7678 176.568,41.4345 175.5,40.5 Z"/></g>
<g><path style="opacity:1" fill="#7d7d7d" d="M 9.5,47.5 C 9.5,49.1667 9.5,50.8333 9.5,52.5C 7.58533,52.7845 5.91866,52.4511 4.5,51.5C 5.83333,51.5 7.16667,51.5 8.5,51.5C 8.23219,49.901 8.56552,48.5676 9.5,47.5 Z"/></g>
<g><path style="opacity:1" fill="#7f7f7f" d="M 69.5,44.5 C 64.0928,46.326 64.4261,47.326 70.5,47.5C 70.5,49.1667 70.5,50.8333 70.5,52.5C 66.9581,52.8128 63.6248,52.4794 60.5,51.5C 63.5,51.5 66.5,51.5 69.5,51.5C 69.5,50.5 69.5,49.5 69.5,48.5C 67.8333,48.5 66.1667,48.5 64.5,48.5C 64.5,47.1667 64.5,45.8333 64.5,44.5C 66.1667,44.5 67.8333,44.5 69.5,44.5 Z"/></g>
<g><path style="opacity:1" fill="#7b7b7b" d="M 119.5,37.5 C 118.282,38.1614 116.949,38.8281 115.5,39.5C 116.689,40.4287 118.022,40.762 119.5,40.5C 119.5,42.1667 119.5,43.8333 119.5,45.5C 118.022,45.238 116.689,45.5713 115.5,46.5C 117.045,47.4519 118.712,47.7852 120.5,47.5C 120.5,49.1667 120.5,50.8333 120.5,52.5C 116.958,52.8128 113.625,52.4794 110.5,51.5C 113.5,51.5 116.5,51.5 119.5,51.5C 119.5,50.5 119.5,49.5 119.5,48.5C 117.833,48.5 116.167,48.5 114.5,48.5C 114.5,47.1667 114.5,45.8333 114.5,44.5C 115.833,44.5 117.167,44.5 118.5,44.5C 118.5,43.5 118.5,42.5 118.5,41.5C 117.167,41.5 115.833,41.5 114.5,41.5C 114.5,40.1667 114.5,38.8333 114.5,37.5C 116.167,37.5 117.833,37.5 119.5,37.5 Z"/></g>
<g><path style="opacity:1" fill="#828282" d="M 133.5,49.5 C 134.404,50.209 134.737,51.209 134.5,52.5C 132.585,52.7845 130.919,52.4511 129.5,51.5C 131.483,51.8432 132.817,51.1765 133.5,49.5 Z"/></g>
<g><path style="opacity:1" fill="#737373" d="M 168.5,48.5 C 169.434,49.5676 169.768,50.901 169.5,52.5C 166.941,52.8016 164.607,52.4682 162.5,51.5C 164.5,51.5 166.5,51.5 168.5,51.5C 168.5,50.5 168.5,49.5 168.5,48.5 Z"/></g>
</svg>
