<?xml version="1.0" encoding="UTF-8"?>
<!DOCTYPE svg PUBLIC "-//W3C//DTD SVG 1.1//EN" "http://www.w3.org/Graphics/SVG/1.1/DTD/svg11.dtd">
<svg xmlns="http://www.w3.org/2000/svg" version="1.1" width="162px" height="130px" style="shape-rendering:geometricPrecision; text-rendering:geometricPrecision; image-rendering:optimizeQuality; fill-rule:evenodd; clip-rule:evenodd" xmlns:xlink="http://www.w3.org/1999/xlink">
<g><path style="opacity:0.498" fill="#e5f5cb" d="M 62.5,9.5 C 61.448,9.64945 60.448,9.48278 59.5,9C 57.6499,6.98239 55.6499,5.14905 53.5,3.5C 52.7564,4.99051 52.0897,6.49051 51.5,8C 47.0829,8.22754 42.7496,8.72754 38.5,9.5C 36.1667,10.1667 33.8333,10.8333 31.5,11.5C 32.9746,9.59047 34.9746,8.42381 37.5,8C 42.1561,7.33453 46.8228,6.83453 51.5,6.5C 51.5,4.83333 51.5,3.16667 51.5,1.5C 52.552,1.35055 53.552,1.51722 54.5,2C 57.0625,4.73296 59.7291,7.23296 62.5,9.5 Z"/></g>
<g><path style="opacity:1" fill="#c6e7a7" d="M 121.5,7.5 C 121.5,7.83333 121.5,8.16667 121.5,8.5C 113.042,8.1247 105.042,9.79137 97.5,13.5C 100.32,10.9193 103.654,9.08592 107.5,8C 112.155,7.50085 116.821,7.33418 121.5,7.5 Z"/></g>
<g><path style="opacity:1" fill="#97cb53" d="M 121.5,8.5 C 122.5,8.5 123.5,8.5 124.5,8.5C 128.666,10.9286 133,13.4286 137.5,16C 140.419,17.5427 140.752,19.0427 138.5,20.5C 137.078,19.075 135.411,18.075 133.5,17.5C 131.5,16.8333 129.5,16.1667 127.5,15.5C 125.972,14.6908 124.306,14.0241 122.5,13.5C 117.684,12.3503 112.684,12.1837 107.5,13C 106.619,13.7083 105.953,14.5416 105.5,15.5C 105.167,15.5 104.833,15.5 104.5,15.5C 101.91,16.1283 99.5766,17.295 97.5,19C 96.1772,19.8159 95.5106,20.9826 95.5,22.5C 94.0937,22.9731 93.427,23.9731 93.5,25.5C 92.5,25.8333 91.8333,26.5 91.5,27.5C 89.0029,28.1293 87.6696,29.796 87.5,32.5C 87.5,33.1667 87.5,33.8333 87.5,34.5C 86.0937,34.9731 85.427,35.9731 85.5,37.5C 84.5768,38.3029 83.5768,38.4696 82.5,38C 81.2289,35.4305 79.8955,32.9305 78.5,30.5C 80.8439,30.0603 82.8439,29.0603 84.5,27.5C 85.4959,27.5858 86.3292,27.2524 87,26.5C 88.6303,23.3711 90.4636,20.3711 92.5,17.5C 94.754,16.8763 96.4206,15.543 97.5,13.5C 105.042,9.79137 113.042,8.1247 121.5,8.5 Z"/></g>
<g><path style="opacity:1" fill="#add17f" d="M 38.5,9.5 C 35.5,11.5 32.5,13.5 29.5,15.5C 27.1667,17.5 24.8333,19.5 22.5,21.5C 23.7536,18.9066 25.4202,16.5732 27.5,14.5C 28.2623,12.7376 29.5956,11.7376 31.5,11.5C 33.8333,10.8333 36.1667,10.1667 38.5,9.5 Z"/></g>
<g><path style="opacity:1" fill="#8ed14a" d="M 57.5,17.5 C 57.5,17.8333 57.5,18.1667 57.5,18.5C 56.5,18.5 55.5,18.5 54.5,18.5C 54.5,16.5 54.5,14.5 54.5,12.5C 53.1667,12.5 51.8333,12.5 50.5,12.5C 50.1667,12.5 49.8333,12.5 49.5,12.5C 46.6946,11.6805 43.6946,11.1805 40.5,11C 45.0466,9.45482 49.7133,9.12148 54.5,10C 57.029,11.062 59.6957,11.8953 62.5,12.5C 60.9547,13.4519 59.288,13.7852 57.5,13.5C 57.5,14.8333 57.5,16.1667 57.5,17.5 Z"/></g>
<g><path style="opacity:1" fill="#b7b667" d="M 122.5,13.5 C 118.629,13.185 114.962,13.5184 111.5,14.5C 109.435,14.5172 107.435,14.8505 105.5,15.5C 105.953,14.5416 106.619,13.7083 107.5,13C 112.684,12.1837 117.684,12.3503 122.5,13.5 Z"/></g>
<g><path style="opacity:1" fill="#c65862" d="M 111.5,14.5 C 114.962,13.5184 118.629,13.185 122.5,13.5C 124.306,14.0241 125.972,14.6908 127.5,15.5C 122.187,14.9022 116.854,14.5688 111.5,14.5 Z"/></g>
<g><path style="opacity:0.973" fill="#e5f6ca" d="M 121.5,8.5 C 121.5,8.16667 121.5,7.83333 121.5,7.5C 124.941,7.30108 128.274,7.80108 131.5,9C 136.915,11.916 141.915,15.416 146.5,19.5C 148.323,18.2528 150.323,17.5861 152.5,17.5C 152.435,20.4282 151.768,23.0948 150.5,25.5C 150.261,23.5328 150.594,21.6995 151.5,20C 149.244,20.6147 146.911,20.9481 144.5,21C 139.233,14.5608 132.566,10.3941 124.5,8.5C 123.5,8.5 122.5,8.5 121.5,8.5 Z"/></g>
<g><path style="opacity:0.922" fill="#e3f3c5" d="M 62.5,9.5 C 69.988,11.9909 75.6547,16.6576 79.5,23.5C 74.3458,18.1061 68.6792,13.4394 62.5,9.5 Z"/></g>
<g><path style="opacity:1" fill="#d1ebb0" d="M 97.5,13.5 C 96.4206,15.543 94.754,16.8763 92.5,17.5C 93.5387,15.4689 95.2054,14.1355 97.5,13.5 Z"/></g>
<g><path style="opacity:1" fill="#dc356a" d="M 111.5,14.5 C 116.854,14.5688 122.187,14.9022 127.5,15.5C 129.5,16.1667 131.5,16.8333 133.5,17.5C 135.348,19.5164 137.015,21.683 138.5,24C 138.252,25.7491 137.252,26.5824 135.5,26.5C 134.167,24.1667 132.833,21.8333 131.5,19.5C 130.571,18.6851 129.571,17.8518 128.5,17C 124.137,16.7095 119.804,16.2095 115.5,15.5C 111.527,16.3844 107.527,17.051 103.5,17.5C 103.833,16.8333 104.167,16.1667 104.5,15.5C 104.833,15.5 105.167,15.5 105.5,15.5C 107.435,14.8505 109.435,14.5172 111.5,14.5 Z"/></g>
<g><path style="opacity:1" fill="#bcaa71" d="M 36.5,15.5 C 35.653,16.9663 34.3197,17.7996 32.5,18C 30.5359,19.451 29.2026,21.2843 28.5,23.5C 27.8333,23.5 27.5,23.8333 27.5,24.5C 26.5,24.8333 25.8333,25.5 25.5,26.5C 24.8333,26.8333 24.1667,27.1667 23.5,27.5C 25.7847,23.2733 28.7847,19.6067 32.5,16.5C 33.8333,16.1667 35.1667,15.8333 36.5,15.5 Z"/></g>
<g><path style="opacity:1" fill="#b8555b" d="M 50.5,13.5 C 51.1667,13.5 51.8333,13.5 52.5,13.5C 52.5,16.5 52.5,19.5 52.5,22.5C 51.8333,19.8333 51.1667,17.1667 50.5,14.5C 47.4299,14.3677 44.4299,14.701 41.5,15.5C 41.6107,14.8826 41.944,14.3826 42.5,14C 45.146,13.5026 47.8127,13.3359 50.5,13.5 Z"/></g>
<g><path style="opacity:1" fill="#bcaf6b" d="M 104.5,15.5 C 104.167,16.1667 103.833,16.8333 103.5,17.5C 100.63,18.4333 98.2964,20.1 96.5,22.5C 96.1667,22.5 95.8333,22.5 95.5,22.5C 95.5106,20.9826 96.1772,19.8159 97.5,19C 99.5766,17.295 101.91,16.1283 104.5,15.5 Z"/></g>
<g><path style="opacity:1" fill="#f21979" d="M 131.5,19.5 C 126.633,19.1615 126.299,20.3282 130.5,23C 129.009,25.0217 129.342,26.6883 131.5,28C 129.75,29.7542 129.083,31.9208 129.5,34.5C 125.5,34.5 121.5,34.5 117.5,34.5C 117.5,33.5 117.5,32.5 117.5,31.5C 116.5,31.5 115.5,31.5 114.5,31.5C 114.5,32.5 114.5,33.5 114.5,34.5C 113.5,34.5 112.5,34.5 111.5,34.5C 111.5,32.8333 111.5,31.1667 111.5,29.5C 109.396,29.7989 107.396,29.4656 105.5,28.5C 103.237,26.6599 100.904,24.9932 98.5,23.5C 100.754,22.1347 102.42,20.1347 103.5,17.5C 107.527,17.051 111.527,16.3844 115.5,15.5C 119.804,16.2095 124.137,16.7095 128.5,17C 129.571,17.8518 130.571,18.6851 131.5,19.5 Z"/></g>
<g><path style="opacity:1" fill="#c5aa7f" d="M 52.5,13.5 C 52.9174,16.1589 53.9174,18.4922 55.5,20.5C 55.5,20.8333 55.5,21.1667 55.5,21.5C 54.791,22.404 53.791,22.7373 52.5,22.5C 52.5,19.5 52.5,16.5 52.5,13.5 Z"/></g>
<g><path style="opacity:1" fill="#bb9e6b" d="M 63.5,16.5 C 61.0532,16.615 59.0532,17.615 57.5,19.5C 57.5,19.1667 57.5,18.8333 57.5,18.5C 57.5,18.1667 57.5,17.8333 57.5,17.5C 59.3619,15.5252 61.3619,15.1919 63.5,16.5 Z"/></g>
<g><path style="opacity:1" fill="#a1c561" d="M 50.5,13.5 C 50.5,13.1667 50.5,12.8333 50.5,12.5C 51.8333,12.5 53.1667,12.5 54.5,12.5C 54.5,14.5 54.5,16.5 54.5,18.5C 55.5,18.5 56.5,18.5 57.5,18.5C 57.5,18.8333 57.5,19.1667 57.5,19.5C 56.8333,19.8333 56.1667,20.1667 55.5,20.5C 53.9174,18.4922 52.9174,16.1589 52.5,13.5C 51.8333,13.5 51.1667,13.5 50.5,13.5 Z"/></g>
<g><path style="opacity:1" fill="#c24a58" d="M 63.5,16.5 C 66.027,18.6054 68.3603,20.9387 70.5,23.5C 67.7157,21.6041 64.7157,19.9374 61.5,18.5C 60.0986,19.5207 58.7653,20.5207 57.5,21.5C 56.8333,21.5 56.1667,21.5 55.5,21.5C 55.5,21.1667 55.5,20.8333 55.5,20.5C 56.1667,20.1667 56.8333,19.8333 57.5,19.5C 59.0532,17.615 61.0532,16.615 63.5,16.5 Z"/></g>
<g><path style="opacity:1" fill="#c8485e" d="M 36.5,15.5 C 36.8333,15.5 37.1667,15.5 37.5,15.5C 37.8333,15.5 38.1667,15.5 38.5,15.5C 36.6721,18.1944 34.3387,20.1944 31.5,21.5C 30.5,22.1667 29.5,22.8333 28.5,23.5C 29.2026,21.2843 30.5359,19.451 32.5,18C 34.3197,17.7996 35.653,16.9663 36.5,15.5 Z"/></g>
<g><path style="opacity:1" fill="#9cca5e" d="M 62.5,9.5 C 68.6792,13.4394 74.3458,18.1061 79.5,23.5C 80.5588,25.5554 82.2254,26.8888 84.5,27.5C 82.8439,29.0603 80.8439,30.0603 78.5,30.5C 78.1667,30.5 77.8333,30.5 77.5,30.5C 76.8333,30.1667 76.1667,29.8333 75.5,29.5C 74.5806,26.9108 72.914,24.9108 70.5,23.5C 68.3603,20.9387 66.027,18.6054 63.5,16.5C 61.3619,15.1919 59.3619,15.5252 57.5,17.5C 57.5,16.1667 57.5,14.8333 57.5,13.5C 59.288,13.7852 60.9547,13.4519 62.5,12.5C 59.6957,11.8953 57.029,11.062 54.5,10C 49.7133,9.12148 45.0466,9.45482 40.5,11C 43.6946,11.1805 46.6946,11.6805 49.5,12.5C 44.9311,11.886 40.9311,12.886 37.5,15.5C 37.1667,15.5 36.8333,15.5 36.5,15.5C 35.1667,15.8333 33.8333,16.1667 32.5,16.5C 31.791,15.596 30.791,15.2627 29.5,15.5C 32.5,13.5 35.5,11.5 38.5,9.5C 42.7496,8.72754 47.0829,8.22754 51.5,8C 52.0897,6.49051 52.7564,4.99051 53.5,3.5C 55.6499,5.14905 57.6499,6.98239 59.5,9C 60.448,9.48278 61.448,9.64945 62.5,9.5 Z"/></g>
<g><path style="opacity:1" fill="#bea26e" d="M 49.5,12.5 C 49.8333,12.5 50.1667,12.5 50.5,12.5C 50.5,12.8333 50.5,13.1667 50.5,13.5C 47.8127,13.3359 45.146,13.5026 42.5,14C 41.944,14.3826 41.6107,14.8826 41.5,15.5C 40.5,15.5 39.5,15.5 38.5,15.5C 38.1667,15.5 37.8333,15.5 37.5,15.5C 40.9311,12.886 44.9311,11.886 49.5,12.5 Z"/></g>
<g><path style="opacity:1" fill="#c6deab" d="M 92.5,17.5 C 90.4636,20.3711 88.6303,23.3711 87,26.5C 86.3292,27.2524 85.4959,27.5858 84.5,27.5C 85.684,24.1393 87.5173,21.1393 90,18.5C 90.6708,17.7476 91.5041,17.4142 92.5,17.5 Z"/></g>
<g><path style="opacity:1" fill="#c06e6b" d="M 95.5,22.5 C 95.8333,22.5 96.1667,22.5 96.5,22.5C 95.8333,23.8333 94.8333,24.8333 93.5,25.5C 93.427,23.9731 94.0937,22.9731 95.5,22.5 Z"/></g>
<g><path style="opacity:1" fill="#9fc764" d="M 124.5,8.5 C 132.566,10.3941 139.233,14.5608 144.5,21C 146.911,20.9481 149.244,20.6147 151.5,20C 150.594,21.6995 150.261,23.5328 150.5,25.5C 149.532,27.6074 149.198,29.9407 149.5,32.5C 148.292,31.7659 146.959,31.4326 145.5,31.5C 146.342,36.787 146.676,42.1203 146.5,47.5C 147.5,47.5 148.5,47.5 149.5,47.5C 148.371,50.5085 147.371,53.5085 146.5,56.5C 146.228,48.1135 145.394,47.7802 144,55.5C 143.292,56.3805 142.458,57.0472 141.5,57.5C 142.787,54.302 143.453,50.9686 143.5,47.5C 144.794,45.9522 145.461,43.9522 145.5,41.5C 146.51,36.1638 144.51,32.8305 139.5,31.5C 139.5,31.1667 139.5,30.8333 139.5,30.5C 145.008,31.3223 147.675,28.9889 147.5,23.5C 145.071,23.415 143.071,22.415 141.5,20.5C 140.702,20.9569 140.369,21.6236 140.5,22.5C 139.5,22.1667 138.833,21.5 138.5,20.5C 140.752,19.0427 140.419,17.5427 137.5,16C 133,13.4286 128.666,10.9286 124.5,8.5 Z"/></g>
<g><path style="opacity:1" fill="#e23065" d="M 50.5,14.5 C 51.1667,17.1667 51.8333,19.8333 52.5,22.5C 53.791,22.7373 54.791,22.404 55.5,21.5C 56.1667,21.5 56.8333,21.5 57.5,21.5C 56.3995,22.6049 55.7329,23.9382 55.5,25.5C 54.2652,25.7214 53.2652,26.3881 52.5,27.5C 51.8076,26.9747 51.3076,26.3081 51,25.5C 50.5014,21.8484 50.3347,18.1817 50.5,14.5 Z"/></g>
<g><path style="opacity:1" fill="#f11a79" d="M 70.5,23.5 C 71.4194,26.0892 73.086,28.0892 75.5,29.5C 75.3433,30.8734 75.51,32.2068 76,33.5C 78.5335,36.8526 80.3668,40.5193 81.5,44.5C 79.9507,46.829 79.1173,49.4956 79,52.5C 78.8247,47.9805 78.3247,43.6472 77.5,39.5C 77.1667,39.5 76.8333,39.5 76.5,39.5C 74.0849,38.1858 71.2515,37.5191 68,37.5C 65.1667,37.6667 62.3333,37.8333 59.5,38C 56.1788,39.8715 54.8454,38.7049 55.5,34.5C 56.2941,30.3642 58.2941,26.8642 61.5,24C 59.1599,23.2516 57.1599,23.7516 55.5,25.5C 55.7329,23.9382 56.3995,22.6049 57.5,21.5C 58.7653,20.5207 60.0986,19.5207 61.5,18.5C 64.7157,19.9374 67.7157,21.6041 70.5,23.5 Z"/></g>
<g><path style="opacity:1" fill="#c54b59" d="M 70.5,23.5 C 72.914,24.9108 74.5806,26.9108 75.5,29.5C 73.086,28.0892 71.4194,26.0892 70.5,23.5 Z"/></g>
<g><path style="opacity:1" fill="#f01a7c" d="M 39.5,35.5 C 37.2075,35.2436 35.0408,35.5769 33,36.5C 32.501,40.8206 32.3343,45.1539 32.5,49.5C 31.2652,49.2786 30.2652,48.6119 29.5,47.5C 28.5493,45.0988 27.216,42.9322 25.5,41C 23.4437,31.4436 24.6104,30.6103 29,38.5C 29.1858,36.0995 29.6858,33.7662 30.5,31.5C 34.1769,30.1661 37.8436,28.8328 41.5,27.5C 38.1929,25.3162 34.6929,24.9829 31,26.5C 30.2904,25.0267 29.1238,24.3601 27.5,24.5C 27.5,23.8333 27.8333,23.5 28.5,23.5C 29.5,22.8333 30.5,22.1667 31.5,21.5C 33.8568,21.6633 36.1902,21.4966 38.5,21C 39.3802,19.6439 39.7135,18.1439 39.5,16.5C 40.9778,16.238 42.3112,16.5713 43.5,17.5C 43.0798,19.326 43.0798,21.326 43.5,23.5C 45.5,23.5 47.5,23.5 49.5,23.5C 49.8076,25.924 49.4742,28.2573 48.5,30.5C 46.2753,29.8995 44.1086,29.5661 42,29.5C 40.136,30.9639 37.9694,31.9639 35.5,32.5C 37.3316,33.0568 38.6649,34.0568 39.5,35.5 Z"/></g>
<g><path style="opacity:1" fill="#93ce4e" d="M 139.5,30.5 C 138.325,30.719 137.325,30.3857 136.5,29.5C 138.734,27.6187 140.067,25.2853 140.5,22.5C 140.369,21.6236 140.702,20.9569 141.5,20.5C 143.071,22.415 145.071,23.415 147.5,23.5C 147.675,28.9889 145.008,31.3223 139.5,30.5 Z"/></g>
<g><path style="opacity:1" fill="#c98181" d="M 135.5,27.5 C 134.89,28.391 134.557,29.391 134.5,30.5C 133.115,29.0527 133.448,28.0527 135.5,27.5 Z"/></g>
<g><path style="opacity:1" fill="#b8a86b" d="M 133.5,17.5 C 135.411,18.075 137.078,19.075 138.5,20.5C 138.833,21.5 139.5,22.1667 140.5,22.5C 140.067,25.2853 138.734,27.6187 136.5,29.5C 137.325,30.3857 138.325,30.719 139.5,30.5C 139.5,30.8333 139.5,31.1667 139.5,31.5C 138.833,31.5 138.167,31.5 137.5,31.5C 136.391,31.4431 135.391,31.1098 134.5,30.5C 134.557,29.391 134.89,28.391 135.5,27.5C 135.5,27.1667 135.5,26.8333 135.5,26.5C 137.252,26.5824 138.252,25.7491 138.5,24C 137.015,21.683 135.348,19.5164 133.5,17.5 Z"/></g>
<g><path style="opacity:1" fill="#bfa869" d="M 91.5,27.5 C 90.396,29.3885 89.0627,31.0552 87.5,32.5C 87.6696,29.796 89.0029,28.1293 91.5,27.5 Z"/></g>
<g><path style="opacity:1" fill="#f1197a" d="M 98.5,23.5 C 100.904,24.9932 103.237,26.6599 105.5,28.5C 107.396,29.4656 109.396,29.7989 111.5,29.5C 111.5,31.1667 111.5,32.8333 111.5,34.5C 111.5,34.8333 111.5,35.1667 111.5,35.5C 110.167,37.5 110.167,39.5 111.5,41.5C 111.5,42.1667 111.833,42.5 112.5,42.5C 114.948,43.4731 117.615,43.8064 120.5,43.5C 120.241,47.0681 118.241,48.4015 114.5,47.5C 114.833,51.3232 113.166,52.8232 109.5,52C 110.669,49.9935 111.335,47.8268 111.5,45.5C 103.5,45.5 95.5,45.5 87.5,45.5C 86.7222,44.8444 86.0556,44.0111 85.5,43C 86.2335,41.2341 86.5668,39.4008 86.5,37.5C 86.5,36.8333 86.8333,36.5 87.5,36.5C 88.1499,36.1961 88.8165,35.8627 89.5,35.5C 90.5237,36.8532 91.857,37.5198 93.5,37.5C 93.335,34.1501 93.5017,30.8168 94,27.5C 95.3968,25.9297 96.8968,24.5964 98.5,23.5 Z"/></g>
<g><path style="opacity:1" fill="#bd5366" d="M 25.5,26.5 C 25.8799,28.698 25.2132,30.3646 23.5,31.5C 23.5,30.5 23.5,29.5 23.5,28.5C 23.5,28.1667 23.5,27.8333 23.5,27.5C 24.1667,27.1667 24.8333,26.8333 25.5,26.5 Z"/></g>
<g><path style="opacity:1" fill="#f2197a" d="M 50.5,14.5 C 50.3347,18.1817 50.5014,21.8484 51,25.5C 51.3076,26.3081 51.8076,26.9747 52.5,27.5C 53.2652,26.3881 54.2652,25.7214 55.5,25.5C 57.1599,23.7516 59.1599,23.2516 61.5,24C 58.2941,26.8642 56.2941,30.3642 55.5,34.5C 54.8333,30.5 54.1667,30.5 53.5,34.5C 51.2646,34.2053 49.2646,34.5386 47.5,35.5C 46.3795,41.0181 45.3795,46.6848 44.5,52.5C 42.711,47.5932 41.8777,42.2599 42,36.5C 41.3292,35.7476 40.4959,35.4142 39.5,35.5C 38.6649,34.0568 37.3316,33.0568 35.5,32.5C 37.9694,31.9639 40.136,30.9639 42,29.5C 44.1086,29.5661 46.2753,29.8995 48.5,30.5C 49.4742,28.2573 49.8076,25.924 49.5,23.5C 47.5,23.5 45.5,23.5 43.5,23.5C 43.0798,21.326 43.0798,19.326 43.5,17.5C 42.3112,16.5713 40.9778,16.238 39.5,16.5C 39.7135,18.1439 39.3802,19.6439 38.5,21C 36.1902,21.4966 33.8568,21.6633 31.5,21.5C 34.3387,20.1944 36.6721,18.1944 38.5,15.5C 39.5,15.5 40.5,15.5 41.5,15.5C 44.4299,14.701 47.4299,14.3677 50.5,14.5 Z"/></g>
<g><path style="opacity:1" fill="#c13988" d="M 111.5,35.5 C 117.69,35.1771 123.69,35.5104 129.5,36.5C 123.5,36.5 117.5,36.5 111.5,36.5C 111.5,38.1667 111.5,39.8333 111.5,41.5C 110.167,39.5 110.167,37.5 111.5,35.5 Z"/></g>
<g><path style="opacity:1" fill="#bdb068" d="M 23.5,28.5 C 23.5,29.5 23.5,30.5 23.5,31.5C 21.8255,34.5072 21.1588,37.8405 21.5,41.5C 19.9536,36.8813 20.6203,32.5479 23.5,28.5 Z"/></g>
<g><path style="opacity:1" fill="#c4866a" d="M 87.5,34.5 C 87.5,35.1667 87.5,35.8333 87.5,36.5C 86.8333,36.5 86.5,36.8333 86.5,37.5C 86.1667,37.5 85.8333,37.5 85.5,37.5C 85.427,35.9731 86.0937,34.9731 87.5,34.5 Z"/></g>
<g><path style="opacity:1" fill="#dd2d70" d="M 103.5,17.5 C 102.42,20.1347 100.754,22.1347 98.5,23.5C 96.8968,24.5964 95.3968,25.9297 94,27.5C 93.5017,30.8168 93.335,34.1501 93.5,37.5C 91.857,37.5198 90.5237,36.8532 89.5,35.5C 88.8165,35.8627 88.1499,36.1961 87.5,36.5C 87.5,35.8333 87.5,35.1667 87.5,34.5C 87.5,33.8333 87.5,33.1667 87.5,32.5C 89.0627,31.0552 90.396,29.3885 91.5,27.5C 91.8333,26.5 92.5,25.8333 93.5,25.5C 94.8333,24.8333 95.8333,23.8333 96.5,22.5C 98.2964,20.1 100.63,18.4333 103.5,17.5 Z"/></g>
<g><path style="opacity:1" fill="#cb90d3" d="M 129.5,36.5 C 130.167,36.5 130.5,36.8333 130.5,37.5C 124.5,37.5 118.5,37.5 112.5,37.5C 112.5,38.8333 112.5,40.1667 112.5,41.5C 116.5,41.5 120.5,41.5 124.5,41.5C 124.975,44.3126 123.975,46.3126 121.5,47.5C 122.038,45.8828 122.371,44.2161 122.5,42.5C 119.167,42.5 115.833,42.5 112.5,42.5C 111.833,42.5 111.5,42.1667 111.5,41.5C 111.5,39.8333 111.5,38.1667 111.5,36.5C 117.5,36.5 123.5,36.5 129.5,36.5 Z"/></g>
<g><path style="opacity:1" fill="#ee1d7a" d="M 131.5,19.5 C 132.833,21.8333 134.167,24.1667 135.5,26.5C 135.5,26.8333 135.5,27.1667 135.5,27.5C 133.448,28.0527 133.115,29.0527 134.5,30.5C 135.391,31.1098 136.391,31.4431 137.5,31.5C 138.913,32.9348 140.58,33.9348 142.5,34.5C 142.666,39.5111 142.499,44.5111 142,49.5C 140.04,55.3959 137.706,61.0626 135,66.5C 134.333,67.8333 133.667,67.8333 133,66.5C 132.51,67.7932 132.343,69.1266 132.5,70.5C 129.214,71.2071 125.881,71.5405 122.5,71.5C 122.5,75.1667 122.5,78.8333 122.5,82.5C 121.5,82.5 120.5,82.5 119.5,82.5C 119.5,83.5 119.5,84.5 119.5,85.5C 118.5,85.5 117.5,85.5 116.5,85.5C 116.737,86.791 116.404,87.791 115.5,88.5C 115.167,88.5 114.833,88.5 114.5,88.5C 114.5,87.8333 114.167,87.5 113.5,87.5C 113.672,86.5084 113.338,85.8417 112.5,85.5C 112.5,84.5 112.5,83.5 112.5,82.5C 116.44,83.234 117.773,81.9007 116.5,78.5C 115.839,75.2129 115.339,71.8796 115,68.5C 113.175,67.8971 111.341,67.2304 109.5,66.5C 113.26,66.725 116.426,65.0583 119,61.5C 120.975,62.478 122.642,63.8113 124,65.5C 126.896,63.2879 130.063,61.9546 133.5,61.5C 134.108,60.2003 134.775,58.8669 135.5,57.5C 134.568,55.2345 133.235,53.2345 131.5,51.5C 132.249,47.2111 132.249,42.8777 131.5,38.5C 131.5,37.8333 131.167,37.5 130.5,37.5C 130.5,36.8333 130.167,36.5 129.5,36.5C 123.69,35.5104 117.69,35.1771 111.5,35.5C 111.5,35.1667 111.5,34.8333 111.5,34.5C 112.5,34.5 113.5,34.5 114.5,34.5C 114.5,33.5 114.5,32.5 114.5,31.5C 115.5,31.5 116.5,31.5 117.5,31.5C 117.5,32.5 117.5,33.5 117.5,34.5C 121.5,34.5 125.5,34.5 129.5,34.5C 129.083,31.9208 129.75,29.7542 131.5,28C 129.342,26.6883 129.009,25.0217 130.5,23C 126.299,20.3282 126.633,19.1615 131.5,19.5 Z"/></g>
<g><path style="opacity:1" fill="#c35d5b" d="M 23.5,31.5 C 22.3797,35.5282 22.3797,39.5282 23.5,43.5C 22.8333,43.1667 22.1667,42.8333 21.5,42.5C 21.5,42.1667 21.5,41.8333 21.5,41.5C 21.1588,37.8405 21.8255,34.5072 23.5,31.5 Z"/></g>
<g><path style="opacity:1" fill="#8ed14f" d="M 149.5,32.5 C 149.5,37.5 149.5,42.5 149.5,47.5C 148.5,47.5 147.5,47.5 146.5,47.5C 146.676,42.1203 146.342,36.787 145.5,31.5C 146.959,31.4326 148.292,31.7659 149.5,32.5 Z"/></g>
<g><path style="opacity:1" fill="#b0b56a" d="M 77.5,30.5 C 77.8333,30.5 78.1667,30.5 78.5,30.5C 79.8955,32.9305 81.2289,35.4305 82.5,38C 83.5768,38.4696 84.5768,38.3029 85.5,37.5C 85.4754,40.179 84.142,41.5123 81.5,41.5C 80.1804,37.8784 78.847,34.2118 77.5,30.5 Z"/></g>
<g><path style="opacity:1" fill="#c25e60" d="M 137.5,31.5 C 138.167,31.5 138.833,31.5 139.5,31.5C 144.51,32.8305 146.51,36.1638 145.5,41.5C 145.461,43.9522 144.794,45.9522 143.5,47.5C 143.818,42.9677 143.485,38.6344 142.5,34.5C 140.58,33.9348 138.913,32.9348 137.5,31.5 Z"/></g>
<g><path style="opacity:1" fill="#ad91d6" d="M 47.5,35.5 C 49.4147,35.2155 51.0813,35.5489 52.5,36.5C 51.1667,36.5 49.8333,36.5 48.5,36.5C 48.8182,41.0323 48.4849,45.3656 47.5,49.5C 47.5,44.8333 47.5,40.1667 47.5,35.5 Z"/></g>
<g><path style="opacity:1" fill="#ab8fcd" d="M 76.5,39.5 C 76.8333,39.5 77.1667,39.5 77.5,39.5C 77.8064,42.3854 77.4731,45.0521 76.5,47.5C 76.1667,47.5 75.8333,47.5 75.5,47.5C 75.5,45.1667 75.5,42.8333 75.5,40.5C 70.5,40.5 65.5,40.5 60.5,40.5C 60.5,41.5 60.5,42.5 60.5,43.5C 64.1667,43.5 67.8333,43.5 71.5,43.5C 71.8294,46.2282 71.1628,48.5615 69.5,50.5C 69.5,48.8333 69.5,47.1667 69.5,45.5C 66.1667,45.5 62.8333,45.5 59.5,45.5C 59.5,43.5 59.5,41.5 59.5,39.5C 65.1667,39.5 70.8333,39.5 76.5,39.5 Z"/></g>
<g><path style="opacity:1" fill="#cba6e5" d="M 130.5,37.5 C 131.167,37.5 131.5,37.8333 131.5,38.5C 131.691,42.2883 130.358,45.2883 127.5,47.5C 129.08,44.3408 130.08,41.0075 130.5,37.5 Z"/></g>
<g><path style="opacity:1" fill="#6b9bd0" d="M 130.5,37.5 C 130.08,41.0075 129.08,44.3408 127.5,47.5C 126.876,47.9169 126.543,48.5836 126.5,49.5C 127.967,51.4978 129.8,53.1645 132,54.5C 132.483,55.448 132.649,56.448 132.5,57.5C 129.962,56.9573 127.628,55.9573 125.5,54.5C 122.926,55.4057 120.593,56.739 118.5,58.5C 116.194,58.9926 113.861,59.3259 111.5,59.5C 110.305,59.1344 109.639,58.301 109.5,57C 110.77,55.2246 112.436,54.058 114.5,53.5C 117.888,52.6519 120.221,50.6519 121.5,47.5C 123.975,46.3126 124.975,44.3126 124.5,41.5C 120.5,41.5 116.5,41.5 112.5,41.5C 112.5,40.1667 112.5,38.8333 112.5,37.5C 118.5,37.5 124.5,37.5 130.5,37.5 Z"/></g>
<g><path style="opacity:1" fill="#b8b770" d="M 21.5,42.5 C 22.1667,42.8333 22.8333,43.1667 23.5,43.5C 24.6005,44.6049 25.2671,45.9382 25.5,47.5C 24.5,47.5 23.5,47.5 22.5,47.5C 22.6107,46.8826 22.944,46.3826 23.5,46C 22.1772,45.1841 21.5106,44.0174 21.5,42.5 Z"/></g>
<g><path style="opacity:1" fill="#c56c6b" d="M 23.5,43.5 C 25.9118,43.6941 26.9118,45.0274 26.5,47.5C 26.1667,47.5 25.8333,47.5 25.5,47.5C 25.2671,45.9382 24.6005,44.6049 23.5,43.5 Z"/></g>
<g><path style="opacity:1" fill="#e03287" d="M 55.5,34.5 C 54.8454,38.7049 56.1788,39.8715 59.5,38C 62.3333,37.8333 65.1667,37.6667 68,37.5C 71.2515,37.5191 74.0849,38.1858 76.5,39.5C 70.8333,39.5 65.1667,39.5 59.5,39.5C 59.5,41.5 59.5,43.5 59.5,45.5C 58.5,45.5 57.5,45.5 56.5,45.5C 56.9227,47.7812 56.256,49.4479 54.5,50.5C 54.8195,45.6367 54.4861,40.97 53.5,36.5C 53.1667,36.5 52.8333,36.5 52.5,36.5C 51.0813,35.5489 49.4147,35.2155 47.5,35.5C 49.2646,34.5386 51.2646,34.2053 53.5,34.5C 54.1667,30.5 54.8333,30.5 55.5,34.5 Z"/></g>
<g><path style="opacity:1" fill="#d33f67" d="M 75.5,29.5 C 76.1667,29.8333 76.8333,30.1667 77.5,30.5C 78.847,34.2118 80.1804,37.8784 81.5,41.5C 84.142,41.5123 85.4754,40.179 85.5,37.5C 85.8333,37.5 86.1667,37.5 86.5,37.5C 86.5668,39.4008 86.2335,41.2341 85.5,43C 86.0556,44.0111 86.7222,44.8444 87.5,45.5C 86.1667,45.5 84.8333,45.5 83.5,45.5C 83.1583,44.6618 82.4916,44.3284 81.5,44.5C 80.3668,40.5193 78.5335,36.8526 76,33.5C 75.51,32.2068 75.3433,30.8734 75.5,29.5 Z"/></g>
<g><path style="opacity:1" fill="#a0c871" d="M 13.5,39.5 C 11.8325,41.4786 11.1658,43.812 11.5,46.5C 9.39605,46.7989 7.39605,46.4656 5.5,45.5C 7.921,43.0663 10.5877,41.0663 13.5,39.5 Z"/></g>
<g><path style="opacity:1" fill="#d297d6" d="M 83.5,46.5 C 91.5069,46.3336 99.5069,46.5003 107.5,47C 108.38,48.3561 108.714,49.8561 108.5,51.5C 108.167,51.5 107.833,51.5 107.5,51.5C 99.6841,52.4924 91.6841,52.8257 83.5,52.5C 83.5,50.5 83.5,48.5 83.5,46.5 Z"/></g>
<g><path style="opacity:1" fill="#c6b1e7" d="M 52.5,36.5 C 52.8333,36.5 53.1667,36.5 53.5,36.5C 53.8173,42.9092 53.3173,49.2425 52,55.5C 50.6288,57.0414 49.1288,58.3747 47.5,59.5C 49.5005,56.8325 51.0005,53.8325 52,50.5C 52.4992,45.8452 52.6658,41.1785 52.5,36.5 Z"/></g>
<g><path style="opacity:1" fill="#f3187b" d="M 59.5,45.5 C 62.2869,46.4767 65.2869,46.81 68.5,46.5C 68.822,48.7224 68.1554,50.5557 66.5,52C 63.3054,52.1805 60.3054,52.6805 57.5,53.5C 56.8333,53.5 56.1667,53.5 55.5,53.5C 54.596,52.791 54.2627,51.791 54.5,50.5C 56.256,49.4479 56.9227,47.7812 56.5,45.5C 57.5,45.5 58.5,45.5 59.5,45.5 Z"/></g>
<g><path style="opacity:1" fill="#d22f83" d="M 112.5,42.5 C 115.833,42.5 119.167,42.5 122.5,42.5C 122.371,44.2161 122.038,45.8828 121.5,47.5C 118.94,49.2733 116.607,51.2733 114.5,53.5C 112.436,54.058 110.77,55.2246 109.5,57C 109.639,58.301 110.305,59.1344 111.5,59.5C 111.5,60.1667 111.5,60.8333 111.5,61.5C 110.167,60.8333 109.167,59.8333 108.5,58.5C 108.5,56.1667 108.5,53.8333 108.5,51.5C 108.714,49.8561 108.38,48.3561 107.5,47C 99.5069,46.5003 91.5069,46.3336 83.5,46.5C 83.5,46.1667 83.5,45.8333 83.5,45.5C 84.8333,45.5 86.1667,45.5 87.5,45.5C 95.5,45.5 103.5,45.5 111.5,45.5C 111.335,47.8268 110.669,49.9935 109.5,52C 113.166,52.8232 114.833,51.3232 114.5,47.5C 118.241,48.4015 120.241,47.0681 120.5,43.5C 117.615,43.8064 114.948,43.4731 112.5,42.5 Z"/></g>
<g><path style="opacity:0.796" fill="#e2f7c7" d="M 27.5,14.5 C 25.4202,16.5732 23.7536,18.9066 22.5,21.5C 18.9847,27.1972 15.9847,33.1972 13.5,39.5C 10.5877,41.0663 7.921,43.0663 5.5,45.5C 7.39605,46.4656 9.39605,46.7989 11.5,46.5C 13.1439,46.2865 14.6439,46.6198 16,47.5C 17.0793,50.0627 17.5793,52.7294 17.5,55.5C 16.3589,53.3331 15.3589,50.9998 14.5,48.5C 10.9062,47.5741 7.23957,47.2408 3.5,47.5C 6.00886,43.1511 9.50886,39.4845 14,36.5C 15.5797,30.0081 18.2463,24.0081 22,18.5C 23.451,16.5359 25.2843,15.2026 27.5,14.5 Z"/></g>
<g><path style="opacity:1" fill="#d63388" d="M 47.5,35.5 C 47.5,40.1667 47.5,44.8333 47.5,49.5C 46.7281,50.6935 45.7281,51.6935 44.5,52.5C 45.3795,46.6848 46.3795,41.0181 47.5,35.5 Z"/></g>
<g><path style="opacity:1" fill="#d0378a" d="M 59.5,45.5 C 62.8333,45.5 66.1667,45.5 69.5,45.5C 69.5,47.1667 69.5,48.8333 69.5,50.5C 69.7373,51.791 69.404,52.791 68.5,53.5C 64.8333,53.5 61.1667,53.5 57.5,53.5C 60.3054,52.6805 63.3054,52.1805 66.5,52C 68.1554,50.5557 68.822,48.7224 68.5,46.5C 65.2869,46.81 62.2869,46.4767 59.5,45.5 Z"/></g>
<g><path style="opacity:1" fill="#d24193" d="M 131.5,38.5 C 132.249,42.8777 132.249,47.2111 131.5,51.5C 129.167,51.1667 127.833,49.8333 127.5,47.5C 130.358,45.2883 131.691,42.2883 131.5,38.5 Z"/></g>
<g><path style="opacity:1" fill="#7398cf" d="M 107.5,51.5 C 100.159,51.6663 92.8258,51.4997 85.5,51C 84.6634,49.9887 84.33,48.8221 84.5,47.5C 91.8409,47.3337 99.1742,47.5003 106.5,48C 107.337,49.0113 107.67,50.1779 107.5,51.5 Z"/></g>
<g><path style="opacity:1" fill="#a199d1" d="M 127.5,47.5 C 127.833,49.8333 129.167,51.1667 131.5,51.5C 133.235,53.2345 134.568,55.2345 135.5,57.5C 134.775,58.8669 134.108,60.2003 133.5,61.5C 130.236,59.9059 127.569,57.5725 125.5,54.5C 127.628,55.9573 129.962,56.9573 132.5,57.5C 132.649,56.448 132.483,55.448 132,54.5C 129.8,53.1645 127.967,51.4978 126.5,49.5C 126.543,48.5836 126.876,47.9169 127.5,47.5 Z"/></g>
<g><path style="opacity:1" fill="#b48ccd" d="M 121.5,47.5 C 120.221,50.6519 117.888,52.6519 114.5,53.5C 116.607,51.2733 118.94,49.2733 121.5,47.5 Z"/></g>
<g><path style="opacity:1" fill="#679acc" d="M 52.5,36.5 C 52.6658,41.1785 52.4992,45.8452 52,50.5C 51.0005,53.8325 49.5005,56.8325 47.5,59.5C 47.5,60.1667 47.1667,60.5 46.5,60.5C 44.3806,62.0875 42.714,61.7542 41.5,59.5C 44.5524,56.7174 46.5524,53.3841 47.5,49.5C 48.4849,45.3656 48.8182,41.0323 48.5,36.5C 49.8333,36.5 51.1667,36.5 52.5,36.5 Z"/></g>
<g><path style="opacity:1" fill="#c6e3a6" d="M 150.5,25.5 C 151.205,32.8269 151.372,40.1602 151,47.5C 150.032,53.2413 148.198,58.5747 145.5,63.5C 145.167,63.5 144.833,63.5 144.5,63.5C 144.878,61.079 145.545,58.7457 146.5,56.5C 147.371,53.5085 148.371,50.5085 149.5,47.5C 149.5,42.5 149.5,37.5 149.5,32.5C 149.198,29.9407 149.532,27.6074 150.5,25.5 Z"/></g>
<g><path style="opacity:1" fill="#cf398b" d="M 39.5,35.5 C 40.4959,35.4142 41.3292,35.7476 42,36.5C 41.8777,42.2599 42.711,47.5932 44.5,52.5C 43.3387,55.0738 41.672,57.2404 39.5,59C 40.4285,61.9088 42.4285,63.0755 45.5,62.5C 44.4324,63.4345 43.099,63.7678 41.5,63.5C 40.5416,63.0472 39.7083,62.3805 39,61.5C 38.6667,59.5 38.3333,57.5 38,55.5C 34.6034,54.9366 32.7701,52.9366 32.5,49.5C 32.3343,45.1539 32.501,40.8206 33,36.5C 35.0408,35.5769 37.2075,35.2436 39.5,35.5 Z"/></g>
<g><path style="opacity:1" fill="#c998da" d="M 34.5,36.5 C 36.5,36.5 38.5,36.5 40.5,36.5C 40.5,42.1667 40.5,47.8333 40.5,53.5C 38.5328,53.7394 36.6995,53.4061 35,52.5C 34.5006,47.1771 34.334,41.8437 34.5,36.5 Z"/></g>
<g><path style="opacity:1" fill="#7196cd" d="M 35.5,37.5 C 36.8333,37.5 38.1667,37.5 39.5,37.5C 39.5,42.1667 39.5,46.8333 39.5,51.5C 38.1667,51.5 36.8333,51.5 35.5,51.5C 35.5,46.8333 35.5,42.1667 35.5,37.5 Z"/></g>
<g><path style="opacity:1" fill="#bc68b4" d="M 75.5,47.5 C 75.8333,47.5 76.1667,47.5 76.5,47.5C 76.5,49.5 76.5,51.5 76.5,53.5C 78.099,53.2322 79.4324,53.5655 80.5,54.5C 78.8333,54.5 77.1667,54.5 75.5,54.5C 75.5,52.1667 75.5,49.8333 75.5,47.5 Z"/></g>
<g><path style="opacity:1" fill="#b4b668" d="M 22.5,47.5 C 22.8511,50.9032 23.5178,54.2365 24.5,57.5C 23.3509,57.2089 22.6842,56.3756 22.5,55C 21.4336,52.3294 21.4336,49.8294 22.5,47.5 Z"/></g>
<g><path style="opacity:0.996" fill="#d6eeba" d="M 17.5,55.5 C 20.6404,58.7497 22.307,62.7497 22.5,67.5C 19.7812,64.0477 18.1145,60.0477 17.5,55.5 Z"/></g>
<g><path style="opacity:1" fill="#97cd57" d="M 29.5,15.5 C 30.791,15.2627 31.791,15.596 32.5,16.5C 28.7847,19.6067 25.7847,23.2733 23.5,27.5C 23.5,27.8333 23.5,28.1667 23.5,28.5C 20.6203,32.5479 19.9536,36.8813 21.5,41.5C 21.5,41.8333 21.5,42.1667 21.5,42.5C 21.5106,44.0174 22.1772,45.1841 23.5,46C 22.944,46.3826 22.6107,46.8826 22.5,47.5C 21.4336,49.8294 21.4336,52.3294 22.5,55C 22.6842,56.3756 23.3509,57.2089 24.5,57.5C 24.0311,60.3933 25.0311,62.3933 27.5,63.5C 27.149,66.8116 28.4823,69.145 31.5,70.5C 31.427,72.0269 32.0937,73.0269 33.5,73.5C 34.4194,76.0892 36.086,78.0892 38.5,79.5C 39.8333,80.1667 40.8333,81.1667 41.5,82.5C 42.7573,85.4274 44.7573,87.7607 47.5,89.5C 49.1793,90.9163 50.8459,92.2497 52.5,93.5C 53.0695,96.3345 54.7361,98.0012 57.5,98.5C 58.1667,98.8333 58.8333,99.1667 59.5,99.5C 59.5,100.5 59.5,101.5 59.5,102.5C 57.8333,102.5 56.1667,102.5 54.5,102.5C 53.5084,102.672 52.8417,102.338 52.5,101.5C 50.1002,98.0969 47.1002,95.4302 43.5,93.5C 42.7377,91.7376 41.4044,90.7376 39.5,90.5C 38.8333,89.5 38.1667,88.5 37.5,87.5C 36.0427,85.3718 35.0427,83.0384 34.5,80.5C 33.5,80.5 32.5,80.5 31.5,80.5C 29.2371,75.6355 26.2371,71.3021 22.5,67.5C 22.307,62.7497 20.6404,58.7497 17.5,55.5C 17.5793,52.7294 17.0793,50.0627 16,47.5C 14.6439,46.6198 13.1439,46.2865 11.5,46.5C 11.1658,43.812 11.8325,41.4786 13.5,39.5C 15.9847,33.1972 18.9847,27.1972 22.5,21.5C 24.8333,19.5 27.1667,17.5 29.5,15.5 Z"/></g>
<g><path style="opacity:1" fill="#a494cc" d="M 47.5,49.5 C 46.5524,53.3841 44.5524,56.7174 41.5,59.5C 42.714,61.7542 44.3806,62.0875 46.5,60.5C 46.1667,61.1667 45.8333,61.8333 45.5,62.5C 42.4285,63.0755 40.4285,61.9088 39.5,59C 41.672,57.2404 43.3387,55.0738 44.5,52.5C 45.7281,51.6935 46.7281,50.6935 47.5,49.5 Z"/></g>
<g><path style="opacity:1" fill="#cd4092" d="M 53.5,36.5 C 54.4861,40.97 54.8195,45.6367 54.5,50.5C 54.2627,51.791 54.596,52.791 55.5,53.5C 55.5,55.5 55.5,57.5 55.5,59.5C 55.1667,59.5 54.8333,59.5 54.5,59.5C 53.3991,58.4017 52.0657,58.235 50.5,59C 49.2107,60.8022 47.5441,61.9688 45.5,62.5C 45.8333,61.8333 46.1667,61.1667 46.5,60.5C 47.1667,60.5 47.5,60.1667 47.5,59.5C 49.1288,58.3747 50.6288,57.0414 52,55.5C 53.3173,49.2425 53.8173,42.9092 53.5,36.5 Z"/></g>
<g><path style="opacity:1" fill="#6899ce" d="M 75.5,47.5 C 75.5,49.8333 75.5,52.1667 75.5,54.5C 76.9187,55.4511 78.5853,55.7845 80.5,55.5C 80.5,56.5 80.5,57.5 80.5,58.5C 72.5,58.5 64.5,58.5 56.5,58.5C 56.5,57.1667 56.5,55.8333 56.5,54.5C 60.7016,54.8168 64.7016,54.4834 68.5,53.5C 69.404,52.791 69.7373,51.791 69.5,50.5C 71.1628,48.5615 71.8294,46.2282 71.5,43.5C 67.8333,43.5 64.1667,43.5 60.5,43.5C 60.5,42.5 60.5,41.5 60.5,40.5C 65.5,40.5 70.5,40.5 75.5,40.5C 75.5,42.8333 75.5,45.1667 75.5,47.5 Z"/></g>
<g><path style="opacity:1" fill="#f5187b" d="M 108.5,58.5 C 109.167,59.8333 110.167,60.8333 111.5,61.5C 110.261,63.7967 108.428,64.13 106,62.5C 104.97,62.8361 104.47,63.5028 104.5,64.5C 103.5,64.5 102.5,64.5 101.5,64.5C 97.5,64.1667 97.5,63.8333 101.5,63.5C 101.762,62.0222 101.429,60.6888 100.5,59.5C 98.8333,61.8333 96.8333,63.8333 94.5,65.5C 93.0042,62.825 93.6708,60.825 96.5,59.5C 97.4519,57.9547 97.7852,56.288 97.5,54.5C 100.833,54.5 104.167,54.5 107.5,54.5C 107.232,56.099 107.566,57.4324 108.5,58.5 Z"/></g>
<g><path style="opacity:1" fill="#adb0e8" d="M 75.5,54.5 C 77.1667,54.5 78.8333,54.5 80.5,54.5C 81.4511,55.9187 81.7845,57.5853 81.5,59.5C 72.9832,59.8261 64.6499,59.4927 56.5,58.5C 64.5,58.5 72.5,58.5 80.5,58.5C 80.5,57.5 80.5,56.5 80.5,55.5C 78.5853,55.7845 76.9187,55.4511 75.5,54.5 Z"/></g>
<g><path style="opacity:1" fill="#d281ca" d="M 55.5,53.5 C 56.1667,53.5 56.8333,53.5 57.5,53.5C 61.1667,53.5 64.8333,53.5 68.5,53.5C 64.7016,54.4834 60.7016,54.8168 56.5,54.5C 56.5,55.8333 56.5,57.1667 56.5,58.5C 64.6499,59.4927 72.9832,59.8261 81.5,59.5C 73.0161,60.493 64.3494,60.8264 55.5,60.5C 55.5,60.1667 55.5,59.8333 55.5,59.5C 55.5,57.5 55.5,55.5 55.5,53.5 Z"/></g>
<g><path style="opacity:1" fill="#c8a7e3" d="M 118.5,58.5 C 116.815,60.8176 114.481,61.8176 111.5,61.5C 111.5,60.8333 111.5,60.1667 111.5,59.5C 113.861,59.3259 116.194,58.9926 118.5,58.5 Z"/></g>
<g><path style="opacity:1" fill="#b4b26a" d="M 24.5,57.5 C 26.0075,59.1815 27.0075,61.1815 27.5,63.5C 25.0311,62.3933 24.0311,60.3933 24.5,57.5 Z"/></g>
<g><path style="opacity:1" fill="#ce3b62" d="M 22.5,47.5 C 23.5,47.5 24.5,47.5 25.5,47.5C 25.8333,47.5 26.1667,47.5 26.5,47.5C 25.4309,50.408 25.2642,53.408 26,56.5C 28.1353,60.4026 29.9686,64.4026 31.5,68.5C 30.1667,66.8333 28.8333,65.1667 27.5,63.5C 27.0075,61.1815 26.0075,59.1815 24.5,57.5C 23.5178,54.2365 22.8511,50.9032 22.5,47.5 Z"/></g>
<g><path style="opacity:1" fill="#baac6e" d="M 141.5,57.5 C 141.741,59.8984 141.074,61.8984 139.5,63.5C 139.259,61.1016 139.926,59.1016 141.5,57.5 Z"/></g>
<g><path style="opacity:1" fill="#e52780" d="M 125.5,54.5 C 127.569,57.5725 130.236,59.9059 133.5,61.5C 130.063,61.9546 126.896,63.2879 124,65.5C 122.642,63.8113 120.975,62.478 119,61.5C 116.426,65.0583 113.26,66.725 109.5,66.5C 111.341,67.2304 113.175,67.8971 115,68.5C 115.339,71.8796 115.839,75.2129 116.5,78.5C 115.833,78.1667 115.167,77.8333 114.5,77.5C 113.612,74.9455 113.279,72.2788 113.5,69.5C 112.081,68.5489 110.415,68.2155 108.5,68.5C 108.5,67.1667 108.5,65.8333 108.5,64.5C 107.167,64.5 105.833,64.5 104.5,64.5C 104.47,63.5028 104.97,62.8361 106,62.5C 108.428,64.13 110.261,63.7967 111.5,61.5C 114.481,61.8176 116.815,60.8176 118.5,58.5C 120.593,56.739 122.926,55.4057 125.5,54.5 Z"/></g>
<g><path style="opacity:1" fill="#f01a7a" d="M 27.5,24.5 C 29.1238,24.3601 30.2904,25.0267 31,26.5C 34.6929,24.9829 38.1929,25.3162 41.5,27.5C 37.8436,28.8328 34.1769,30.1661 30.5,31.5C 29.6858,33.7662 29.1858,36.0995 29,38.5C 24.6104,30.6103 23.4437,31.4436 25.5,41C 27.216,42.9322 28.5493,45.0988 29.5,47.5C 30.2652,48.6119 31.2652,49.2786 32.5,49.5C 32.7701,52.9366 34.6034,54.9366 38,55.5C 38.3333,57.5 38.6667,59.5 39,61.5C 39.7083,62.3805 40.5416,63.0472 41.5,63.5C 41.5,64.5 41.5,65.5 41.5,66.5C 42.8333,66.5 44.1667,66.5 45.5,66.5C 45.2619,70.0993 46.2619,70.4327 48.5,67.5C 49.2811,68.7287 49.7811,70.062 50,71.5C 51.049,69.8934 52.549,69.2267 54.5,69.5C 54.5,70.8333 54.5,72.1667 54.5,73.5C 51.5,72.1667 48.5,72.1667 45.5,73.5C 45.4223,76.4867 46.589,77.1534 49,75.5C 50.8792,77.0128 53.0459,77.6795 55.5,77.5C 54.372,85.3001 50.372,87.3001 43.5,83.5C 43.5,82.1667 43.5,80.8333 43.5,79.5C 42.448,79.6495 41.448,79.4828 40.5,79C 39.5887,76.5852 37.922,75.0852 35.5,74.5C 35.3304,71.796 33.9971,70.1293 31.5,69.5C 31.5,69.1667 31.5,68.8333 31.5,68.5C 29.9686,64.4026 28.1353,60.4026 26,56.5C 25.2642,53.408 25.4309,50.408 26.5,47.5C 26.9118,45.0274 25.9118,43.6941 23.5,43.5C 22.3797,39.5282 22.3797,35.5282 23.5,31.5C 25.2132,30.3646 25.8799,28.698 25.5,26.5C 25.8333,25.5 26.5,24.8333 27.5,24.5 Z"/></g>
<g><path style="opacity:1" fill="#d24798" d="M 101.5,65.5 C 101.5,65.1667 101.5,64.8333 101.5,64.5C 102.5,64.5 103.5,64.5 104.5,64.5C 105.833,64.5 107.167,64.5 108.5,64.5C 108.5,65.8333 108.5,67.1667 108.5,68.5C 110.415,68.2155 112.081,68.5489 113.5,69.5C 113.167,69.5 112.833,69.5 112.5,69.5C 110.833,69.5 109.167,69.5 107.5,69.5C 107.5,68.1667 107.5,66.8333 107.5,65.5C 105.5,65.5 103.5,65.5 101.5,65.5 Z"/></g>
<g><path style="opacity:1" fill="#cc57a6" d="M 82.5,67.5 C 82.7845,69.4147 82.4511,71.0813 81.5,72.5C 81.5,72.8333 81.5,73.1667 81.5,73.5C 72.8333,73.5 64.1667,73.5 55.5,73.5C 55.5,71.1667 55.5,68.8333 55.5,66.5C 64.5839,66.1956 73.5839,66.5289 82.5,67.5 Z"/></g>
<g><path style="opacity:1" fill="#b5af6b" d="M 139.5,63.5 C 139.446,65.632 138.446,66.9653 136.5,67.5C 136.554,65.368 137.554,64.0347 139.5,63.5 Z"/></g>
<g><path style="opacity:1" fill="#bdab6e" d="M 27.5,63.5 C 28.8333,65.1667 30.1667,66.8333 31.5,68.5C 31.5,68.8333 31.5,69.1667 31.5,69.5C 31.5,69.8333 31.5,70.1667 31.5,70.5C 28.4823,69.145 27.149,66.8116 27.5,63.5 Z"/></g>
<g><path style="opacity:1" fill="#ca6fbd" d="M 101.5,65.5 C 101.5,66.8333 101.5,68.1667 101.5,69.5C 99.5,69.5 97.5,69.5 95.5,69.5C 95.5,69.1667 95.5,68.8333 95.5,68.5C 97.1667,68.5 98.8333,68.5 100.5,68.5C 100.263,67.209 100.596,66.209 101.5,65.5 Z"/></g>
<g><path style="opacity:1" fill="#c9515f" d="M 31.5,70.5 C 31.5,70.1667 31.5,69.8333 31.5,69.5C 33.9971,70.1293 35.3304,71.796 35.5,74.5C 34.8333,74.1667 34.1667,73.8333 33.5,73.5C 33.573,71.9731 32.9063,70.9731 31.5,70.5 Z"/></g>
<g><path style="opacity:1" fill="#d83665" d="M 142.5,34.5 C 143.485,38.6344 143.818,42.9677 143.5,47.5C 143.453,50.9686 142.787,54.302 141.5,57.5C 139.926,59.1016 139.259,61.1016 139.5,63.5C 137.554,64.0347 136.554,65.368 136.5,67.5C 135.662,67.8417 135.328,68.5084 135.5,69.5C 133.866,70.2066 132.532,71.3732 131.5,73C 130.207,73.49 128.873,73.6567 127.5,73.5C 126.432,72.5655 125.099,72.2322 123.5,72.5C 123.232,74.099 123.566,75.4324 124.5,76.5C 124.5,77.1667 124.833,77.5 125.5,77.5C 125.5,78.8333 125.5,80.1667 125.5,81.5C 122.5,83.8333 119.833,86.5 117.5,89.5C 117.5,90.1667 117.167,90.5 116.5,90.5C 115.662,90.1583 115.328,89.4916 115.5,88.5C 116.404,87.791 116.737,86.791 116.5,85.5C 117.5,85.5 118.5,85.5 119.5,85.5C 119.5,84.5 119.5,83.5 119.5,82.5C 120.5,82.5 121.5,82.5 122.5,82.5C 122.5,78.8333 122.5,75.1667 122.5,71.5C 125.881,71.5405 129.214,71.2071 132.5,70.5C 132.343,69.1266 132.51,67.7932 133,66.5C 133.667,67.8333 134.333,67.8333 135,66.5C 137.706,61.0626 140.04,55.3959 142,49.5C 142.499,44.5111 142.666,39.5111 142.5,34.5 Z"/></g>
<g><path style="opacity:1" fill="#c0aa5d" d="M 31.5,70.5 C 32.9063,70.9731 33.573,71.9731 33.5,73.5C 32.0937,73.0269 31.427,72.0269 31.5,70.5 Z"/></g>
<g><path style="opacity:1" fill="#bdaae5" d="M 80.5,68.5 C 81.4345,69.5676 81.7678,70.901 81.5,72.5C 73.1667,72.5 64.8333,72.5 56.5,72.5C 56.5,70.8333 56.5,69.1667 56.5,67.5C 64.6841,67.1743 72.6841,67.5076 80.5,68.5 Z"/></g>
<g><path style="opacity:1" fill="#6799cc" d="M 80.5,68.5 C 80.5,69.5 80.5,70.5 80.5,71.5C 72.8333,71.5 65.1667,71.5 57.5,71.5C 57.5,70.5 57.5,69.5 57.5,68.5C 65.1667,68.5 72.8333,68.5 80.5,68.5 Z"/></g>
<g><path style="opacity:1" fill="#ba9269" d="M 135.5,69.5 C 134.071,74.3008 131.071,75.9675 126.5,74.5C 125.614,75.325 125.281,76.325 125.5,77.5C 124.833,77.5 124.5,77.1667 124.5,76.5C 124.5,75.5 124.5,74.5 124.5,73.5C 125.5,73.5 126.5,73.5 127.5,73.5C 128.873,73.6567 130.207,73.49 131.5,73C 132.532,71.3732 133.866,70.2066 135.5,69.5 Z"/></g>
<g><path style="opacity:0.988" fill="#e4f4c4" d="M 22.5,67.5 C 26.2371,71.3021 29.2371,75.6355 31.5,80.5C 27.3375,76.9987 24.3375,72.6654 22.5,67.5 Z"/></g>
<g><path style="opacity:1" fill="#cd8473" d="M 127.5,73.5 C 126.5,73.5 125.5,73.5 124.5,73.5C 124.5,74.5 124.5,75.5 124.5,76.5C 123.566,75.4324 123.232,74.099 123.5,72.5C 125.099,72.2322 126.432,72.5655 127.5,73.5 Z"/></g>
<g><path style="opacity:0.639" fill="#dcecbd" d="M 144.5,63.5 C 144.833,63.5 145.167,63.5 145.5,63.5C 143.823,68.3549 141.489,72.8549 138.5,77C 139.619,78.876 141.286,79.7093 143.5,79.5C 143.5,80.8333 143.5,82.1667 143.5,83.5C 142.167,83.5 140.833,83.5 139.5,83.5C 141.078,81.6253 140.745,80.2919 138.5,79.5C 137.378,77.7116 137.211,75.7116 138,73.5C 140.95,70.5793 143.117,67.2459 144.5,63.5 Z"/></g>
<g><path style="opacity:1" fill="#be9f68" d="M 33.5,73.5 C 34.1667,73.8333 34.8333,74.1667 35.5,74.5C 36.925,75.922 37.925,77.5887 38.5,79.5C 36.086,78.0892 34.4194,76.0892 33.5,73.5 Z"/></g>
<g><path style="opacity:1" fill="#a684c0" d="M 95.5,68.5 C 95.1667,68.5 94.8333,68.5 94.5,68.5C 92.1667,68.5 89.8333,68.5 87.5,68.5C 87.5,76.1667 87.5,83.8333 87.5,91.5C 86.5076,83.6841 86.1743,75.6841 86.5,67.5C 89.9271,65.8232 92.9271,66.1565 95.5,68.5 Z"/></g>
<g><path style="opacity:1" fill="#b493ce" d="M 112.5,69.5 C 112.833,69.5 113.167,69.5 113.5,69.5C 113.279,72.2788 113.612,74.9455 114.5,77.5C 114.5,78.8333 114.5,80.1667 114.5,81.5C 113.5,81.5 112.5,81.5 111.5,81.5C 112.806,80.5326 113.473,79.1993 113.5,77.5C 111.5,77.5 109.5,77.5 107.5,77.5C 107.5,76.1667 107.5,74.8333 107.5,73.5C 109.167,73.5 110.833,73.5 112.5,73.5C 112.5,72.1667 112.5,70.8333 112.5,69.5 Z"/></g>
<g><path style="opacity:1" fill="#6b9dd0" d="M 101.5,65.5 C 103.5,65.5 105.5,65.5 107.5,65.5C 107.5,66.8333 107.5,68.1667 107.5,69.5C 109.167,69.5 110.833,69.5 112.5,69.5C 112.5,70.8333 112.5,72.1667 112.5,73.5C 110.833,73.5 109.167,73.5 107.5,73.5C 107.5,74.8333 107.5,76.1667 107.5,77.5C 109.5,77.5 111.5,77.5 113.5,77.5C 113.473,79.1993 112.806,80.5326 111.5,81.5C 110.529,82.9621 110.862,84.2954 112.5,85.5C 113.338,85.8417 113.672,86.5084 113.5,87.5C 113.585,88.9953 112.919,89.9953 111.5,90.5C 110.024,88.4287 108.024,87.4287 105.5,87.5C 105.357,89.2624 105.691,90.9291 106.5,92.5C 104.833,93.6664 103.166,93.6664 101.5,92.5C 100.388,91.6282 99.0542,91.6282 97.5,92.5C 96.2867,92.2528 95.62,91.5862 95.5,90.5C 94.9032,89.8614 94.0698,89.528 93,89.5C 91.1999,90.3784 89.3666,91.045 87.5,91.5C 87.5,83.8333 87.5,76.1667 87.5,68.5C 89.8333,68.5 92.1667,68.5 94.5,68.5C 93.9644,71.6981 94.631,74.3647 96.5,76.5C 97.9187,77.4511 99.5853,77.7845 101.5,77.5C 101.5,76.5 101.5,75.5 101.5,74.5C 99.7354,73.5386 97.7354,73.2053 95.5,73.5C 95.5,72.1667 95.5,70.8333 95.5,69.5C 97.5,69.5 99.5,69.5 101.5,69.5C 101.5,68.1667 101.5,66.8333 101.5,65.5 Z"/></g>
<g><path style="opacity:1" fill="#9c81c2" d="M 101.5,74.5 C 101.5,75.5 101.5,76.5 101.5,77.5C 99.5853,77.7845 97.9187,77.4511 96.5,76.5C 97.5521,74.744 99.2188,74.0773 101.5,74.5 Z"/></g>
<g><path style="opacity:1" fill="#b0b9ea" d="M 94.5,68.5 C 94.8333,68.5 95.1667,68.5 95.5,68.5C 95.5,68.8333 95.5,69.1667 95.5,69.5C 95.5,70.8333 95.5,72.1667 95.5,73.5C 97.7354,73.2053 99.7354,73.5386 101.5,74.5C 99.2188,74.0773 97.5521,74.744 96.5,76.5C 94.631,74.3647 93.9644,71.6981 94.5,68.5 Z"/></g>
<g><path style="opacity:1" fill="#db3764" d="M 35.5,74.5 C 37.922,75.0852 39.5887,76.5852 40.5,79C 41.448,79.4828 42.448,79.6495 43.5,79.5C 43.5,80.8333 43.5,82.1667 43.5,83.5C 42.8333,83.1667 42.1667,82.8333 41.5,82.5C 40.8333,81.1667 39.8333,80.1667 38.5,79.5C 37.925,77.5887 36.925,75.922 35.5,74.5 Z"/></g>
<g><path style="opacity:1" fill="#d1308c" d="M 82.5,67.5 C 83.5,67.5 84.5,67.5 85.5,67.5C 86.1279,74.9131 85.4612,81.9131 83.5,88.5C 74.3483,87.5064 65.015,87.1731 55.5,87.5C 64.9856,86.5062 74.6522,86.1729 84.5,86.5C 84.6658,81.8215 84.4992,77.1548 84,72.5C 83.3292,73.2524 82.4959,73.5858 81.5,73.5C 81.5,73.1667 81.5,72.8333 81.5,72.5C 82.4511,71.0813 82.7845,69.4147 82.5,67.5 Z"/></g>
<g><path style="opacity:1" fill="#d0eaad" d="M 31.5,80.5 C 32.5,80.5 33.5,80.5 34.5,80.5C 35.0427,83.0384 36.0427,85.3718 37.5,87.5C 34.7573,85.7607 32.7573,83.4274 31.5,80.5 Z"/></g>
<g><path style="opacity:1" fill="#e4237c" d="M 77.5,39.5 C 78.3247,43.6472 78.8247,47.9805 79,52.5C 79.1173,49.4956 79.9507,46.829 81.5,44.5C 82.4916,44.3284 83.1583,44.6618 83.5,45.5C 83.5,45.8333 83.5,46.1667 83.5,46.5C 83.5,48.5 83.5,50.5 83.5,52.5C 91.6841,52.8257 99.6841,52.4924 107.5,51.5C 107.833,51.5 108.167,51.5 108.5,51.5C 108.5,53.8333 108.5,56.1667 108.5,58.5C 107.566,57.4324 107.232,56.099 107.5,54.5C 104.167,54.5 100.833,54.5 97.5,54.5C 97.7852,56.288 97.4519,57.9547 96.5,59.5C 93.6708,60.825 93.0042,62.825 94.5,65.5C 96.8333,63.8333 98.8333,61.8333 100.5,59.5C 101.429,60.6888 101.762,62.0222 101.5,63.5C 97.5,63.8333 97.5,64.1667 101.5,64.5C 101.5,64.8333 101.5,65.1667 101.5,65.5C 100.596,66.209 100.263,67.209 100.5,68.5C 98.8333,68.5 97.1667,68.5 95.5,68.5C 92.9271,66.1565 89.9271,65.8232 86.5,67.5C 86.1667,67.5 85.8333,67.5 85.5,67.5C 84.5,67.5 83.5,67.5 82.5,67.5C 73.5839,66.5289 64.5839,66.1956 55.5,66.5C 55.5,68.8333 55.5,71.1667 55.5,73.5C 64.1667,73.5 72.8333,73.5 81.5,73.5C 82.4959,73.5858 83.3292,73.2524 84,72.5C 84.4992,77.1548 84.6658,81.8215 84.5,86.5C 74.6522,86.1729 64.9856,86.5062 55.5,87.5C 54.5655,88.5676 54.2322,89.901 54.5,91.5C 53.8826,91.6107 53.3826,91.944 53,92.5C 51.549,90.5359 49.7157,89.2026 47.5,88.5C 46.1667,86.8333 44.8333,85.1667 43.5,83.5C 50.372,87.3001 54.372,85.3001 55.5,77.5C 53.0459,77.6795 50.8792,77.0128 49,75.5C 46.589,77.1534 45.4223,76.4867 45.5,73.5C 48.5,72.1667 51.5,72.1667 54.5,73.5C 54.5,72.1667 54.5,70.8333 54.5,69.5C 52.549,69.2267 51.049,69.8934 50,71.5C 49.7811,70.062 49.2811,68.7287 48.5,67.5C 46.2619,70.4327 45.2619,70.0993 45.5,66.5C 44.1667,66.5 42.8333,66.5 41.5,66.5C 41.5,65.5 41.5,64.5 41.5,63.5C 43.099,63.7678 44.4324,63.4345 45.5,62.5C 47.5441,61.9688 49.2107,60.8022 50.5,59C 52.0657,58.235 53.3991,58.4017 54.5,59.5C 53.448,59.3505 52.448,59.5172 51.5,60C 50.5467,61.9552 49.2134,63.6218 47.5,65C 48.1667,65.3333 48.8333,65.6667 49.5,66C 60.1301,65.6255 70.7968,65.4589 81.5,65.5C 81.5,64.5 81.5,63.5 81.5,62.5C 72.4355,63.1364 63.7688,62.4698 55.5,60.5C 64.3494,60.8264 73.0161,60.493 81.5,59.5C 81.7845,57.5853 81.4511,55.9187 80.5,54.5C 79.4324,53.5655 78.099,53.2322 76.5,53.5C 76.5,51.5 76.5,49.5 76.5,47.5C 77.4731,45.0521 77.8064,42.3854 77.5,39.5 Z"/></g>
<g><path style="opacity:1" fill="#d684cb" d="M 79.5,77.5 C 72.5,77.5 65.5,77.5 58.5,77.5C 58.5,78.8333 58.5,80.1667 58.5,81.5C 65.5,81.5 72.5,81.5 79.5,81.5C 72.3524,82.4916 65.0191,82.825 57.5,82.5C 57.5,80.5 57.5,78.5 57.5,76.5C 65.0191,76.175 72.3524,76.5084 79.5,77.5 Z"/></g>
<g><path style="opacity:1" fill="#9da2d9" d="M 79.5,77.5 C 80.8333,78.8333 80.8333,80.1667 79.5,81.5C 72.5,81.5 65.5,81.5 58.5,81.5C 58.5,80.1667 58.5,78.8333 58.5,77.5C 65.5,77.5 72.5,77.5 79.5,77.5 Z"/></g>
<g><path style="opacity:1" fill="#5d9dcc" d="M 59.5,78.5 C 65.8682,78.1703 72.2015,78.5037 78.5,79.5C 75.3333,79.8333 72.1667,80.1667 69,80.5C 65.4242,80.4848 62.2575,79.8182 59.5,78.5 Z"/></g>
<g><path style="opacity:1" fill="#f11a77" d="M 54.5,59.5 C 54.8333,59.5 55.1667,59.5 55.5,59.5C 55.5,59.8333 55.5,60.1667 55.5,60.5C 63.7688,62.4698 72.4355,63.1364 81.5,62.5C 81.5,63.5 81.5,64.5 81.5,65.5C 70.7968,65.4589 60.1301,65.6255 49.5,66C 48.8333,65.6667 48.1667,65.3333 47.5,65C 49.2134,63.6218 50.5467,61.9552 51.5,60C 52.448,59.5172 53.448,59.3505 54.5,59.5 Z"/></g>
<g><path style="opacity:1" fill="#c25dab" d="M 85.5,67.5 C 85.8333,67.5 86.1667,67.5 86.5,67.5C 86.1743,75.6841 86.5076,83.6841 87.5,91.5C 87.5,91.8333 87.5,92.1667 87.5,92.5C 86.1667,92.5 84.8333,92.5 83.5,92.5C 83.5,91.5 83.5,90.5 83.5,89.5C 83.5,89.1667 83.5,88.8333 83.5,88.5C 85.4612,81.9131 86.1279,74.9131 85.5,67.5 Z"/></g>
<g><path style="opacity:1" fill="#95cb57" d="M 146.5,56.5 C 145.545,58.7457 144.878,61.079 144.5,63.5C 143.117,67.2459 140.95,70.5793 138,73.5C 137.211,75.7116 137.378,77.7116 138.5,79.5C 138.5,80.5 138.5,81.5 138.5,82.5C 132.006,81.9034 127.673,84.57 125.5,90.5C 122.703,90.9666 121.369,92.6333 121.5,95.5C 121.167,95.5 120.833,95.5 120.5,95.5C 116.5,94.8333 114.833,96.5 115.5,100.5C 115.167,100.5 114.833,100.5 114.5,100.5C 112.5,100.5 111.5,101.5 111.5,103.5C 110.508,103.328 109.842,103.662 109.5,104.5C 108.883,104.611 108.383,104.944 108,105.5C 107.29,104.027 106.124,103.36 104.5,103.5C 104.5,103.167 104.5,102.833 104.5,102.5C 104.833,101.5 105.5,100.833 106.5,100.5C 111.43,97.5355 115.763,93.8688 119.5,89.5C 121.909,87.0976 123.909,84.4309 125.5,81.5C 125.5,80.1667 125.5,78.8333 125.5,77.5C 125.281,76.325 125.614,75.325 126.5,74.5C 131.071,75.9675 134.071,74.3008 135.5,69.5C 135.328,68.5084 135.662,67.8417 136.5,67.5C 138.446,66.9653 139.446,65.632 139.5,63.5C 141.074,61.8984 141.741,59.8984 141.5,57.5C 142.458,57.0472 143.292,56.3805 144,55.5C 145.394,47.7802 146.228,48.1135 146.5,56.5 Z"/></g>
<g><path style="opacity:1" fill="#be9f6b" d="M 41.5,82.5 C 42.1667,82.8333 42.8333,83.1667 43.5,83.5C 44.8333,85.1667 46.1667,86.8333 47.5,88.5C 47.5,88.8333 47.5,89.1667 47.5,89.5C 44.7573,87.7607 42.7573,85.4274 41.5,82.5 Z"/></g>
<g><path style="opacity:1" fill="#c34790" d="M 114.5,77.5 C 115.167,77.8333 115.833,78.1667 116.5,78.5C 117.773,81.9007 116.44,83.234 112.5,82.5C 112.5,83.5 112.5,84.5 112.5,85.5C 110.862,84.2954 110.529,82.9621 111.5,81.5C 112.5,81.5 113.5,81.5 114.5,81.5C 114.5,80.1667 114.5,78.8333 114.5,77.5 Z"/></g>
<g><path style="opacity:1" fill="#a77cc0" d="M 95.5,81.5 C 96.8333,81.5 98.1667,81.5 99.5,81.5C 99.8333,84.5 98.5,85.8333 95.5,85.5C 95.5,84.1667 95.5,82.8333 95.5,81.5 Z"/></g>
<g><path style="opacity:1" fill="#bddd92" d="M 138.5,79.5 C 140.745,80.2919 141.078,81.6253 139.5,83.5C 134.145,84.349 129.478,86.6823 125.5,90.5C 127.673,84.57 132.006,81.9034 138.5,82.5C 138.5,81.5 138.5,80.5 138.5,79.5 Z"/></g>
<g><path style="opacity:1" fill="#c2936d" d="M 125.5,81.5 C 123.909,84.4309 121.909,87.0976 119.5,89.5C 118.833,89.5 118.167,89.5 117.5,89.5C 119.833,86.5 122.5,83.8333 125.5,81.5 Z"/></g>
<g><path style="opacity:1" fill="#b099d7" d="M 55.5,87.5 C 65.015,87.1731 74.3483,87.5064 83.5,88.5C 83.5,88.8333 83.5,89.1667 83.5,89.5C 83.1667,89.5 82.8333,89.5 82.5,89.5C 73.6822,88.5067 64.6822,88.1734 55.5,88.5C 55.5,89.5 55.5,90.5 55.5,91.5C 55.5,91.8333 55.5,92.1667 55.5,92.5C 54.8333,92.5 54.5,92.1667 54.5,91.5C 54.2322,89.901 54.5655,88.5676 55.5,87.5 Z"/></g>
<g><path style="opacity:1" fill="#b1a3db" d="M 113.5,87.5 C 114.167,87.5 114.5,87.8333 114.5,88.5C 114.262,90.4044 113.262,91.7377 111.5,92.5C 110.206,91.7101 109.039,90.7101 108,89.5C 107.506,91.1341 107.34,92.8008 107.5,94.5C 104.918,94.9746 102.918,94.3079 101.5,92.5C 103.166,93.6664 104.833,93.6664 106.5,92.5C 105.691,90.9291 105.357,89.2624 105.5,87.5C 108.024,87.4287 110.024,88.4287 111.5,90.5C 112.919,89.9953 113.585,88.9953 113.5,87.5 Z"/></g>
<g><path style="opacity:0.729" fill="#ecfde0" d="M 39.5,90.5 C 41.4044,90.7376 42.7377,91.7376 43.5,93.5C 41.5956,93.2624 40.2623,92.2624 39.5,90.5 Z"/></g>
<g><path style="opacity:1" fill="#6598cc" d="M 82.5,89.5 C 73.8955,91.4711 64.8955,92.1377 55.5,91.5C 55.5,90.5 55.5,89.5 55.5,88.5C 64.6822,88.1734 73.6822,88.5067 82.5,89.5 Z"/></g>
<g><path style="opacity:1" fill="#bea7e1" d="M 82.5,89.5 C 82.8333,89.5 83.1667,89.5 83.5,89.5C 83.5,90.5 83.5,91.5 83.5,92.5C 74.6822,93.4933 65.6822,93.8266 56.5,93.5C 55.8333,93.5 55.5,93.1667 55.5,92.5C 55.5,92.1667 55.5,91.8333 55.5,91.5C 64.8955,92.1377 73.8955,91.4711 82.5,89.5 Z"/></g>
<g><path style="opacity:1" fill="#d2b0ec" d="M 95.5,90.5 C 92.8333,91.1667 90.1667,91.8333 87.5,92.5C 87.5,92.1667 87.5,91.8333 87.5,91.5C 89.3666,91.045 91.1999,90.3784 93,89.5C 94.0698,89.528 94.9032,89.8614 95.5,90.5 Z"/></g>
<g><path style="opacity:0.463" fill="#d9ebbb" d="M 125.5,90.5 C 124.136,92.1911 122.803,93.8577 121.5,95.5C 121.369,92.6333 122.703,90.9666 125.5,90.5 Z"/></g>
<g><path style="opacity:1" fill="#ad7f7b" d="M 114.5,88.5 C 114.833,88.5 115.167,88.5 115.5,88.5C 115.328,89.4916 115.662,90.1583 116.5,90.5C 115.5,92.1667 114.167,93.5 112.5,94.5C 112.5,93.8333 112.167,93.5 111.5,93.5C 111.5,93.1667 111.5,92.8333 111.5,92.5C 113.262,91.7377 114.262,90.4044 114.5,88.5 Z"/></g>
<g><path style="opacity:1" fill="#b3ba6b" d="M 117.5,89.5 C 118.167,89.5 118.833,89.5 119.5,89.5C 115.763,93.8688 111.43,97.5355 106.5,100.5C 106.5,100.167 106.5,99.8333 106.5,99.5C 108.46,97.8437 110.46,96.177 112.5,94.5C 114.167,93.5 115.5,92.1667 116.5,90.5C 117.167,90.5 117.5,90.1667 117.5,89.5 Z"/></g>
<g><path style="opacity:1" fill="#d03e8c" d="M 111.5,92.5 C 111.5,92.8333 111.5,93.1667 111.5,93.5C 109.426,94.5139 107.426,95.5139 105.5,96.5C 101.649,95.2589 97.6488,94.2589 93.5,93.5C 92.1667,93.8333 90.8333,94.1667 89.5,94.5C 88.2867,94.2528 87.62,93.5862 87.5,92.5C 90.1667,91.8333 92.8333,91.1667 95.5,90.5C 95.62,91.5862 96.2867,92.2528 97.5,92.5C 99.0542,91.6282 100.388,91.6282 101.5,92.5C 102.918,94.3079 104.918,94.9746 107.5,94.5C 107.34,92.8008 107.506,91.1341 108,89.5C 109.039,90.7101 110.206,91.7101 111.5,92.5 Z"/></g>
<g><path style="opacity:1" fill="#c75d65" d="M 47.5,89.5 C 47.5,89.1667 47.5,88.8333 47.5,88.5C 49.7157,89.2026 51.549,90.5359 53,92.5C 53.3826,91.944 53.8826,91.6107 54.5,91.5C 54.5,92.1667 54.8333,92.5 55.5,92.5C 55.5,93.1667 55.8333,93.5 56.5,93.5C 56.8333,94.8333 57.1667,96.1667 57.5,97.5C 55.8459,96.2497 54.1793,94.9163 52.5,93.5C 50.8459,92.2497 49.1793,90.9163 47.5,89.5 Z"/></g>
<g><path style="opacity:1" fill="#cd3d6a" d="M 111.5,93.5 C 112.167,93.5 112.5,93.8333 112.5,94.5C 110.46,96.177 108.46,97.8437 106.5,99.5C 106.167,99.5 105.833,99.5 105.5,99.5C 106.116,98.2022 106.116,97.2022 105.5,96.5C 107.426,95.5139 109.426,94.5139 111.5,93.5 Z"/></g>
<g><path style="opacity:1" fill="#c1e199" d="M 120.5,95.5 C 119.167,97.5 117.5,99.1667 115.5,100.5C 114.833,96.5 116.5,94.8333 120.5,95.5 Z"/></g>
<g><path style="opacity:0.09" fill="#e1f4c1" d="M 43.5,93.5 C 47.1002,95.4302 50.1002,98.0969 52.5,101.5C 48.8998,99.5698 45.8998,96.9031 43.5,93.5 Z"/></g>
<g><path style="opacity:1" fill="#b0bc6a" d="M 52.5,93.5 C 54.1793,94.9163 55.8459,96.2497 57.5,97.5C 57.5,97.8333 57.5,98.1667 57.5,98.5C 54.7361,98.0012 53.0695,96.3345 52.5,93.5 Z"/></g>
<g><path style="opacity:1" fill="#be735f" d="M 57.5,98.5 C 57.5,98.1667 57.5,97.8333 57.5,97.5C 59.0269,97.427 60.0269,98.0937 60.5,99.5C 60.1667,99.5 59.8333,99.5 59.5,99.5C 58.8333,99.1667 58.1667,98.8333 57.5,98.5 Z"/></g>
<g><path style="opacity:1" fill="#ed1c7a" d="M 83.5,92.5 C 84.8333,92.5 86.1667,92.5 87.5,92.5C 87.62,93.5862 88.2867,94.2528 89.5,94.5C 90.8333,94.1667 92.1667,93.8333 93.5,93.5C 97.6488,94.2589 101.649,95.2589 105.5,96.5C 106.116,97.2022 106.116,98.2022 105.5,99.5C 104.167,100.5 102.833,101.5 101.5,102.5C 95.2501,102.835 88.9167,103.002 82.5,103C 81.5769,105.041 81.2436,107.208 81.5,109.5C 79.8333,109.5 78.1667,109.5 76.5,109.5C 76.7947,107.265 76.4614,105.265 75.5,103.5C 75.0296,102.307 74.0296,101.64 72.5,101.5C 70.1235,100.459 67.7902,100.459 65.5,101.5C 63.8228,100.813 62.1561,100.146 60.5,99.5C 60.0269,98.0937 59.0269,97.427 57.5,97.5C 57.1667,96.1667 56.8333,94.8333 56.5,93.5C 65.6822,93.8266 74.6822,93.4933 83.5,92.5 Z"/></g>
<g><path style="opacity:1" fill="#cc357a" d="M 60.5,99.5 C 62.1561,100.146 63.8228,100.813 65.5,101.5C 67.7902,100.459 70.1235,100.459 72.5,101.5C 74.0296,101.64 75.0296,102.307 75.5,103.5C 74.1667,103.5 72.8333,103.5 71.5,103.5C 69.8333,103.5 68.1667,103.5 66.5,103.5C 65.8333,103.5 65.1667,103.5 64.5,103.5C 64.1667,103.5 63.8333,103.5 63.5,103.5C 62.5,102.167 61.5,100.833 60.5,99.5 Z"/></g>
<g><path style="opacity:0.99" fill="#bdd1e6" d="M 51.5,104.5 C 49.8706,102.94 48.704,103.273 48,105.5C 47.2904,104.027 46.1238,103.36 44.5,103.5C 44.5,105.5 44.5,107.5 44.5,109.5C 43.5318,107.393 43.1984,105.059 43.5,102.5C 46.6981,101.964 49.3647,102.631 51.5,104.5 Z"/></g>
<g><path style="opacity:1" fill="#96af7f" d="M 59.5,99.5 C 59.8333,99.5 60.1667,99.5 60.5,99.5C 61.5,100.833 62.5,102.167 63.5,103.5C 61.9174,105.508 60.9174,107.841 60.5,110.5C 60.1667,110.5 59.8333,110.5 59.5,110.5C 59.5,110.167 59.5,109.833 59.5,109.5C 60.4614,107.735 60.7947,105.735 60.5,103.5C 59.209,103.263 58.209,103.596 57.5,104.5C 56.8333,104.167 56.1667,103.833 55.5,103.5C 54.8333,103.5 54.5,103.167 54.5,102.5C 56.1667,102.5 57.8333,102.5 59.5,102.5C 59.5,101.5 59.5,100.5 59.5,99.5 Z"/></g>
<g><path style="opacity:1" fill="#a98a7c" d="M 105.5,99.5 C 105.833,99.5 106.167,99.5 106.5,99.5C 106.5,99.8333 106.5,100.167 106.5,100.5C 105.5,100.833 104.833,101.5 104.5,102.5C 103.833,102.833 103.167,103.167 102.5,103.5C 102.167,103.5 101.833,103.5 101.5,103.5C 101.5,103.167 101.5,102.833 101.5,102.5C 102.833,101.5 104.167,100.5 105.5,99.5 Z"/></g>
<g><path style="opacity:1" fill="#878288" d="M 66.5,103.5 C 68.1667,103.5 69.8333,103.5 71.5,103.5C 71.5,103.833 71.5,104.167 71.5,104.5C 70.1667,104.5 69.5,105.167 69.5,106.5C 68.1667,105.833 67.1667,104.833 66.5,103.5 Z"/></g>
<g><path style="opacity:1" fill="#325452" d="M 64.5,103.5 C 65.1667,103.5 65.8333,103.5 66.5,103.5C 67.1667,104.833 68.1667,105.833 69.5,106.5C 69.6309,107.376 69.2975,108.043 68.5,108.5C 65.6493,107.988 64.3159,106.321 64.5,103.5 Z"/></g>
<g><path style="opacity:1" fill="#32605a" d="M 104.5,103.5 C 106.124,103.36 107.29,104.027 108,105.5C 108.383,104.944 108.883,104.611 109.5,104.5C 109.5,105.167 109.5,105.833 109.5,106.5C 109.167,106.5 108.833,106.5 108.5,106.5C 107.508,106.328 106.842,106.662 106.5,107.5C 106.167,107.5 105.833,107.5 105.5,107.5C 105.167,106.167 104.833,104.833 104.5,103.5 Z"/></g>
<g><path style="opacity:0.273" fill="#dcf2e7" d="M 114.5,100.5 C 113.314,101.961 113.314,103.295 114.5,104.5C 114.688,106.103 114.188,107.437 113,108.5C 112.802,106.618 112.302,104.952 111.5,103.5C 111.5,101.5 112.5,100.5 114.5,100.5 Z"/></g>
<g><path style="opacity:0.988" fill="#dceeff" d="M 51.5,104.5 C 52.4916,104.328 53.1583,104.662 53.5,105.5C 51.1625,107.011 50.4958,106.677 51.5,104.5 Z"/></g>
<g><path style="opacity:0.902" fill="#c9dee7" d="M 55.5,103.5 C 56.1667,103.833 56.8333,104.167 57.5,104.5C 57.0773,106.781 57.744,108.448 59.5,109.5C 59.5,109.833 59.5,110.167 59.5,110.5C 54.3054,110.821 49.3054,110.487 44.5,109.5C 45.5,109.5 46.5,109.5 47.5,109.5C 47.8333,105.5 48.1667,105.5 48.5,109.5C 50.3307,108.948 51.9974,108.948 53.5,109.5C 54.354,108.478 55.354,107.645 56.5,107C 55.944,106.617 55.6107,106.117 55.5,105.5C 55.5,104.833 55.5,104.167 55.5,103.5 Z"/></g>
<g><path style="opacity:0.996" fill="#264f6e" d="M 111.5,103.5 C 111.5,105.5 111.5,107.5 111.5,109.5C 110.833,109.5 110.167,109.5 109.5,109.5C 109.5,108.5 109.5,107.5 109.5,106.5C 109.5,105.833 109.5,105.167 109.5,104.5C 109.842,103.662 110.508,103.328 111.5,103.5 Z"/></g>
<g><path style="opacity:1" fill="#395a75" d="M 51.5,104.5 C 50.4958,106.677 51.1625,107.011 53.5,105.5C 54.1667,105.5 54.8333,105.5 55.5,105.5C 55.6107,106.117 55.944,106.617 56.5,107C 55.354,107.645 54.354,108.478 53.5,109.5C 51.9974,108.948 50.3307,108.948 48.5,109.5C 48.1667,105.5 47.8333,105.5 47.5,109.5C 46.5,109.5 45.5,109.5 44.5,109.5C 44.5,107.5 44.5,105.5 44.5,103.5C 46.1238,103.36 47.2904,104.027 48,105.5C 48.704,103.273 49.8706,102.94 51.5,104.5 Z"/></g>
<g><path style="opacity:1" fill="#2f5579" d="M 57.5,104.5 C 59.256,105.552 59.9227,107.219 59.5,109.5C 57.744,108.448 57.0773,106.781 57.5,104.5 Z"/></g>
<g><path style="opacity:1" fill="#625d7c" d="M 71.5,103.5 C 72.8333,103.5 74.1667,103.5 75.5,103.5C 75.7947,105.735 75.4614,107.735 74.5,109.5C 73.5,109.5 72.5,109.5 71.5,109.5C 71.5,107.833 71.5,106.167 71.5,104.5C 71.5,104.167 71.5,103.833 71.5,103.5 Z"/></g>
<g><path style="opacity:1" fill="#b83886" d="M 101.5,102.5 C 101.5,102.833 101.5,103.167 101.5,103.5C 101.167,103.5 100.833,103.5 100.5,103.5C 98.1727,103.247 96.1727,103.914 94.5,105.5C 93.2638,104.754 91.9305,104.421 90.5,104.5C 90.5,105.5 90.5,106.5 90.5,107.5C 89.5,107.5 88.5,107.5 87.5,107.5C 87.5,106.167 87.5,104.833 87.5,103.5C 86.1667,103.5 84.8333,103.5 83.5,103.5C 83.6427,105.262 83.3094,106.929 82.5,108.5C 85.3056,109.168 87.9723,109.834 90.5,110.5C 90.1667,110.5 89.8333,110.5 89.5,110.5C 86.1194,110.46 82.7861,110.793 79.5,111.5C 78.5,110.833 77.5,110.167 76.5,109.5C 78.1667,109.5 79.8333,109.5 81.5,109.5C 81.2436,107.208 81.5769,105.041 82.5,103C 88.9167,103.002 95.2501,102.835 101.5,102.5 Z"/></g>
<g><path style="opacity:1" fill="#4f6d63" d="M 100.5,103.5 C 100.833,103.5 101.167,103.5 101.5,103.5C 101.833,103.5 102.167,103.5 102.5,103.5C 102.975,106.082 102.308,108.082 100.5,109.5C 99.8485,108.909 99.1818,108.243 98.5,107.5C 96.4775,109.173 94.1441,109.84 91.5,109.5C 94.5,107.5 97.5,105.5 100.5,103.5 Z"/></g>
<g><path style="opacity:1" fill="#89b190" d="M 104.5,102.5 C 104.5,102.833 104.5,103.167 104.5,103.5C 104.833,104.833 105.167,106.167 105.5,107.5C 105.5,108.5 105.5,109.5 105.5,110.5C 103.784,110.629 102.117,110.962 100.5,111.5C 100.5,110.833 100.5,110.167 100.5,109.5C 102.308,108.082 102.975,106.082 102.5,103.5C 103.167,103.167 103.833,102.833 104.5,102.5 Z"/></g>
<g><path style="opacity:0.835" fill="#374f6e" d="M 115.5,103.5 C 118.779,104.031 120.113,106.031 119.5,109.5C 118.833,109.5 118.167,109.5 117.5,109.5C 116.833,107.5 116.167,105.5 115.5,103.5 Z"/></g>
<g><path style="opacity:0.904" fill="#5c6f81" d="M 124.5,103.5 C 125.461,105.265 125.795,107.265 125.5,109.5C 124.167,109.5 122.833,109.5 121.5,109.5C 121.5,107.5 121.5,105.5 121.5,103.5C 122.5,103.5 123.5,103.5 124.5,103.5 Z"/></g>
<g><path style="opacity:1" fill="#70a07a" d="M 63.5,103.5 C 63.8333,103.5 64.1667,103.5 64.5,103.5C 64.3159,106.321 65.6493,107.988 68.5,108.5C 69.2975,108.043 69.6309,107.376 69.5,106.5C 69.5,105.167 70.1667,104.5 71.5,104.5C 71.5,106.167 71.5,107.833 71.5,109.5C 68.8333,109.5 66.1667,109.5 63.5,109.5C 63.5,107.5 63.5,105.5 63.5,103.5 Z"/></g>
<g><path style="opacity:1" fill="#6b477b" d="M 100.5,103.5 C 97.5,105.5 94.5,107.5 91.5,109.5C 91.5,110.167 91.1667,110.5 90.5,110.5C 87.9723,109.834 85.3056,109.168 82.5,108.5C 83.3094,106.929 83.6427,105.262 83.5,103.5C 84.8333,103.5 86.1667,103.5 87.5,103.5C 87.5,104.833 87.5,106.167 87.5,107.5C 88.5,107.5 89.5,107.5 90.5,107.5C 90.5,106.5 90.5,105.5 90.5,104.5C 91.9305,104.421 93.2638,104.754 94.5,105.5C 96.1727,103.914 98.1727,103.247 100.5,103.5 Z"/></g>
<g><path style="opacity:1" fill="#2f4970" d="M 108.5,106.5 C 107.729,109.332 107.062,109.665 106.5,107.5C 106.842,106.662 107.508,106.328 108.5,106.5 Z"/></g>
<g><path style="opacity:0.89" fill="#c6d9ec" d="M 115.5,103.5 C 118.5,102.167 121.5,102.167 124.5,103.5C 123.5,103.5 122.5,103.5 121.5,103.5C 121.5,105.5 121.5,107.5 121.5,109.5C 120.833,109.5 120.167,109.5 119.5,109.5C 120.113,106.031 118.779,104.031 115.5,103.5 Z"/></g>
<g><path style="opacity:1" fill="#2e5555" d="M 57.5,104.5 C 58.209,103.596 59.209,103.263 60.5,103.5C 60.7947,105.735 60.4614,107.735 59.5,109.5C 59.9227,107.219 59.256,105.552 57.5,104.5 Z"/></g>
<g><path style="opacity:0.631" fill="#7c91a0" d="M 111.5,103.5 C 112.302,104.952 112.802,106.618 113,108.5C 114.188,107.437 114.688,106.103 114.5,104.5C 114.5,103.833 114.833,103.5 115.5,103.5C 116.167,105.5 116.833,107.5 117.5,109.5C 115.5,109.5 113.5,109.5 111.5,109.5C 111.5,107.5 111.5,105.5 111.5,103.5 Z"/></g>
<g><path style="opacity:1" fill="#94c270" d="M 63.5,103.5 C 63.5,105.5 63.5,107.5 63.5,109.5C 66.1667,109.5 68.8333,109.5 71.5,109.5C 72.5,109.5 73.5,109.5 74.5,109.5C 74.8333,110.167 75.1667,110.833 75.5,111.5C 71.2147,110.705 66.8814,110.372 62.5,110.5C 62.5,111.833 62.5,113.167 62.5,114.5C 64.2769,114.214 65.9436,113.547 67.5,112.5C 69.4172,112.754 70.7505,113.754 71.5,115.5C 68.8684,113.937 66.5351,114.27 64.5,116.5C 63.1667,116.5 61.8333,116.5 60.5,116.5C 60.5,114.5 60.5,112.5 60.5,110.5C 60.9174,107.841 61.9174,105.508 63.5,103.5 Z"/></g>
<g><path style="opacity:0.118" fill="#c1cce7" d="M 108.5,106.5 C 108.833,106.5 109.167,106.5 109.5,106.5C 109.5,107.5 109.5,108.5 109.5,109.5C 108.292,110.234 106.959,110.567 105.5,110.5C 105.5,109.5 105.5,108.5 105.5,107.5C 105.833,107.5 106.167,107.5 106.5,107.5C 107.062,109.665 107.729,109.332 108.5,106.5 Z"/></g>
<g><path style="opacity:1" fill="#a45c68" d="M 75.5,103.5 C 76.4614,105.265 76.7947,107.265 76.5,109.5C 77.5,110.167 78.5,110.833 79.5,111.5C 79.5569,112.609 79.8902,113.609 80.5,114.5C 78.5887,113.925 76.922,112.925 75.5,111.5C 75.1667,110.833 74.8333,110.167 74.5,109.5C 75.4614,107.735 75.7947,105.735 75.5,103.5 Z"/></g>
<g><path style="opacity:1" fill="#d82e74" d="M 89.5,110.5 C 88.8333,111.5 88.1667,112.5 87.5,113.5C 85.2362,114.219 82.9029,114.552 80.5,114.5C 79.8902,113.609 79.5569,112.609 79.5,111.5C 82.7861,110.793 86.1194,110.46 89.5,110.5 Z"/></g>
<g><path style="opacity:1" fill="#adce85" d="M 100.5,109.5 C 100.5,110.167 100.5,110.833 100.5,111.5C 96.4474,114.883 92.1141,117.883 87.5,120.5C 87.5,120.167 87.5,119.833 87.5,119.5C 89.8927,118.647 91.226,116.981 91.5,114.5C 92.8333,114.5 94.1667,114.5 95.5,114.5C 95.5,113.5 95.5,112.5 95.5,111.5C 92.5491,111.287 89.8825,111.954 87.5,113.5C 88.1667,112.5 88.8333,111.5 89.5,110.5C 89.8333,110.5 90.1667,110.5 90.5,110.5C 91.1667,110.5 91.5,110.167 91.5,109.5C 94.1441,109.84 96.4775,109.173 98.5,107.5C 99.1818,108.243 99.8485,108.909 100.5,109.5 Z"/></g>
<g><path style="opacity:1" fill="#96c95e" d="M 75.5,111.5 C 76.922,112.925 78.5887,113.925 80.5,114.5C 81.5676,115.434 82.901,115.768 84.5,115.5C 83.791,116.404 82.791,116.737 81.5,116.5C 81.5,117.5 81.5,118.5 81.5,119.5C 83.5,119.5 85.5,119.5 87.5,119.5C 87.5,119.833 87.5,120.167 87.5,120.5C 85.5454,121.323 83.5454,121.49 81.5,121C 77.7713,119.745 74.438,117.912 71.5,115.5C 70.7505,113.754 69.4172,112.754 67.5,112.5C 65.9436,113.547 64.2769,114.214 62.5,114.5C 62.5,113.167 62.5,111.833 62.5,110.5C 66.8814,110.372 71.2147,110.705 75.5,111.5 Z"/></g>
<g><path style="opacity:1" fill="#be9567" d="M 87.5,113.5 C 87.1788,115.048 86.1788,115.715 84.5,115.5C 82.901,115.768 81.5676,115.434 80.5,114.5C 82.9029,114.552 85.2362,114.219 87.5,113.5 Z"/></g>
<g><path style="opacity:1" fill="#8fcf53" d="M 87.5,119.5 C 85.5,119.5 83.5,119.5 81.5,119.5C 81.5,118.5 81.5,117.5 81.5,116.5C 82.791,116.737 83.791,116.404 84.5,115.5C 86.1788,115.715 87.1788,115.048 87.5,113.5C 89.8825,111.954 92.5491,111.287 95.5,111.5C 95.5,112.5 95.5,113.5 95.5,114.5C 94.1667,114.5 92.8333,114.5 91.5,114.5C 91.226,116.981 89.8927,118.647 87.5,119.5 Z"/></g>
<g><path style="opacity:1" fill="#d7e9c0" d="M 59.5,110.5 C 59.8333,110.5 60.1667,110.5 60.5,110.5C 60.5,112.5 60.5,114.5 60.5,116.5C 61.8333,116.5 63.1667,116.5 64.5,116.5C 64.0522,119.487 62.5522,120.487 60,119.5C 59.502,116.518 59.3354,113.518 59.5,110.5 Z"/></g>
<g><path style="opacity:1" fill="#d2edb9" d="M 71.5,115.5 C 74.438,117.912 77.7713,119.745 81.5,121C 83.5454,121.49 85.5454,121.323 87.5,120.5C 85.9472,123.254 83.6139,124.087 80.5,123C 76.7252,121.389 73.7252,118.889 71.5,115.5 Z"/></g>
</svg>
