<?xml version="1.0" encoding="UTF-8"?>
<!DOCTYPE svg PUBLIC "-//W3C//DTD SVG 1.1//EN" "http://www.w3.org/Graphics/SVG/1.1/DTD/svg11.dtd">
<svg xmlns="http://www.w3.org/2000/svg" version="1.1" width="670px" height="670px" style="shape-rendering:geometricPrecision; text-rendering:geometricPrecision; image-rendering:optimizeQuality; fill-rule:evenodd; clip-rule:evenodd" xmlns:xlink="http://www.w3.org/1999/xlink">
<g><path style="opacity:0.992" fill="#fcf3e3" d="M 308.5,-0.5 C 325.833,-0.5 343.167,-0.5 360.5,-0.5C 475.367,11.9617 563.2,66.9617 624,164.5C 649.555,209.325 664.721,257.325 669.5,308.5C 669.5,324.5 669.5,340.5 669.5,356.5C 666.833,356.5 664.167,356.5 661.5,356.5C 632.498,356.333 603.498,356.5 574.5,357C 573.473,357.513 572.473,358.013 571.5,358.5C 564.024,361.817 559.19,367.483 557,375.5C 547.409,424.123 538.075,472.79 529,521.5C 527.609,525.92 524.775,527.92 520.5,527.5C 514.195,511.891 505.861,497.558 495.5,484.5C 518.719,465.375 528.552,440.708 525,410.5C 523.901,401.766 521.734,393.433 518.5,385.5C 521.283,377.984 523.783,370.317 526,362.5C 538.935,358.466 549.435,351.133 557.5,340.5C 569.929,321.512 573.929,300.845 569.5,278.5C 568.455,273.346 566.455,268.679 563.5,264.5C 560.348,258.168 556.181,252.501 551,247.5C 550.754,234.808 550.254,222.142 549.5,209.5C 543.895,145.906 514.562,96.9057 461.5,62.5C 449.615,54.8913 436.948,48.8913 423.5,44.5C 398.717,34.8318 372.884,30.1652 346,30.5C 324.853,30.6638 304.353,33.9971 284.5,40.5C 270.885,44.2518 258.219,49.9185 246.5,57.5C 217.667,73.1645 194.834,95.1645 178,123.5C 166.114,142.992 158.281,163.992 154.5,186.5C 153.596,187.209 153.263,188.209 153.5,189.5C 151.703,208.102 151.036,226.769 151.5,245.5C 138.671,254.798 131.171,267.464 129,283.5C 128.179,290.346 128.346,297.013 129.5,303.5C 130.28,315.341 133.78,326.341 140,336.5C 141.049,338.618 142.549,340.284 144.5,341.5C 152.012,353.149 162.679,360.316 176.5,363C 185.833,363.667 195.167,363.667 204.5,363C 206.41,361.299 207.577,359.133 208,356.5C 210.275,362.045 212.775,367.378 215.5,372.5C 221.59,387.098 230.924,399.265 243.5,409C 257.304,419.736 272.637,427.569 289.5,432.5C 289.714,434.144 289.38,435.644 288.5,437C 273.382,443.392 258.382,450.059 243.5,457C 229.89,464.269 218.39,474.103 209,486.5C 202.246,498.34 195.746,510.34 189.5,522.5C 185.565,516.293 182.398,509.626 180,502.5C 178.062,499.61 175.895,496.944 173.5,494.5C 179.509,487.802 184.509,480.469 188.5,472.5C 190.474,470.572 191.974,468.239 193,465.5C 200.551,450.231 200.217,435.231 192,420.5C 190.961,419.29 189.794,418.29 188.5,417.5C 187.308,415.887 186.308,414.22 185.5,412.5C 183.492,397.493 175.159,388.16 160.5,384.5C 153.679,383.345 146.679,383.179 139.5,384C 135.737,384.92 132.237,386.42 129,388.5C 124.502,377.506 121.169,366.172 119,354.5C 115.875,343.532 108.708,337.532 97.5,336.5C 93.7616,336.579 90.4282,337.746 87.5,340C 84.3571,343.82 81.3571,347.654 78.5,351.5C 61.9688,347.166 52.9688,353.666 51.5,371C 51.7978,373.848 52.1312,376.681 52.5,379.5C 42.1606,378.586 34.9939,382.92 31,392.5C 30.1824,398.902 30.5158,405.235 32,411.5C 38.8112,425.123 46.1446,438.456 54,451.5C 57.2652,464.364 61.9319,476.697 68,488.5C 75.4333,500.601 85.4333,509.934 98,516.5C 98.7114,519.734 99.5447,522.901 100.5,526C 93.8625,530.017 91.6958,535.85 94,543.5C 97.8347,555.507 101.668,567.507 105.5,579.5C 43.1637,519.821 7.83037,446.821 -0.5,360.5C -0.5,343.167 -0.5,325.833 -0.5,308.5C 11.9617,193.633 66.9617,105.8 164.5,45C 209.325,19.4454 257.325,4.27872 308.5,-0.5 Z"/></g>
<g><path style="opacity:1" fill="#362213" d="M 423.5,44.5 C 436.179,50.0071 448.512,56.3404 460.5,63.5C 461.107,63.3764 461.44,63.0431 461.5,62.5C 514.562,96.9057 543.895,145.906 549.5,209.5C 548.662,209.842 548.328,210.508 548.5,211.5C 547.677,208.023 547.177,204.356 547,200.5C 545.307,199.816 543.807,198.816 542.5,197.5C 541.585,198.328 540.919,199.328 540.5,200.5C 540.946,202.368 541.279,204.201 541.5,206C 538.669,207.917 536.169,207.417 534,204.5C 533.528,210.674 533.695,216.841 534.5,223C 534.421,227.726 533.754,232.226 532.5,236.5C 533.217,148.564 492.384,89.5641 410,59.5C 353.363,41.9721 299.529,48.1388 248.5,78C 208.275,105.609 182.275,143.109 170.5,190.5C 172.052,181.703 173.885,173.036 176,164.5C 172.887,165.202 170.387,164.035 168.5,161C 169.167,160.667 169.833,160.333 170.5,160C 169.062,159.781 167.729,159.281 166.5,158.5C 166.846,157.304 167.346,157.304 168,158.5C 168.772,157.151 169.939,156.318 171.5,156C 169.863,155.399 168.197,154.899 166.5,154.5C 165.353,154.818 164.519,155.484 164,156.5C 162.353,160.422 161.353,164.422 161,168.5C 161.333,167.833 161.667,167.167 162,166.5C 163.973,167.64 165.807,168.973 167.5,170.5C 168.167,168.5 168.833,166.5 169.5,164.5C 170.192,165.025 170.692,165.692 171,166.5C 171.333,166.167 171.667,165.833 172,165.5C 172.667,167.167 172.667,168.833 172,170.5C 171.667,170.167 171.333,169.833 171,169.5C 170.626,170.416 170.126,171.25 169.5,172C 171.107,173.049 171.773,174.549 171.5,176.5C 170.178,176.33 169.011,176.663 168,177.5C 168.311,176.065 168.145,174.732 167.5,173.5C 165.013,172.424 162.68,171.09 160.5,169.5C 157.98,175.568 156.147,181.901 155,188.5C 154.536,187.906 154.369,187.239 154.5,186.5C 158.281,163.992 166.114,142.992 178,123.5C 194.834,95.1645 217.667,73.1645 246.5,57.5C 259.479,51.178 272.813,45.678 286.5,41C 285.906,40.5357 285.239,40.369 284.5,40.5C 304.353,33.9971 324.853,30.6638 346,30.5C 372.884,30.1652 398.717,34.8318 423.5,44.5 Z"/></g>
<g><path style="opacity:1" fill="#1d130a" d="M 284.5,40.5 C 285.239,40.369 285.906,40.5357 286.5,41C 272.813,45.678 259.479,51.178 246.5,57.5C 258.219,49.9185 270.885,44.2518 284.5,40.5 Z"/></g>
<g><path style="opacity:1" fill="#1c1007" d="M 423.5,44.5 C 436.948,48.8913 449.615,54.8913 461.5,62.5C 461.44,63.0431 461.107,63.3764 460.5,63.5C 448.512,56.3404 436.179,50.0071 423.5,44.5 Z"/></g>
<g><path style="opacity:1" fill="#cd9d6c" d="M 532.5,236.5 C 527.788,171.906 498.455,121.74 444.5,86C 382.375,51.9195 319.708,50.9195 256.5,83C 212.843,109.084 186.01,147.25 176,197.5C 173.515,210.044 172.182,222.71 172,235.5C 170.644,236.38 169.144,236.714 167.5,236.5C 167.5,228.5 167.5,220.5 167.5,212.5C 168.494,205.305 169.494,197.971 170.5,190.5C 182.275,143.109 208.275,105.609 248.5,78C 299.529,48.1388 353.363,41.9721 410,59.5C 492.384,89.5641 533.217,148.564 532.5,236.5 Z"/></g>
<g><path style="opacity:1" fill="#cb9c6c" d="M 503.5,259.5 C 501.983,254.414 501.15,249.081 501,243.5C 458.236,224.736 432.569,192.403 424,146.5C 419.782,138.885 414.115,137.552 407,142.5C 403.108,157.84 397.442,172.506 390,186.5C 377.354,208.407 358.521,221.24 333.5,225C 331.677,225.997 330.01,227.164 328.5,228.5C 325.833,228.5 323.167,228.5 320.5,228.5C 336.454,214.615 347.954,197.615 355,177.5C 355.94,173.515 356.773,169.515 357.5,165.5C 357.111,157.803 353.111,154.636 345.5,156C 344.333,157.167 343.167,158.333 342,159.5C 335.983,180.042 325.483,197.876 310.5,213C 308.277,214.733 305.944,216.233 303.5,217.5C 292.533,212.868 282.199,213.868 272.5,220.5C 267.584,223.214 263.084,226.548 259,230.5C 258.51,231.793 258.343,233.127 258.5,234.5C 253.473,234.503 248.473,234.836 243.5,235.5C 268.899,214.593 287.065,188.593 298,157.5C 300.336,146.838 296.169,142.338 285.5,144C 284.333,145.167 283.167,146.333 282,147.5C 267.859,189.145 240.859,219.145 201,237.5C 199.943,244.842 198.776,252.175 197.5,259.5C 196.012,254.596 194.845,249.596 194,244.5C 193.385,242.884 192.385,241.551 191,240.5C 190.501,235.511 190.334,230.511 190.5,225.5C 195.004,170.221 220.67,128.055 267.5,99C 320.67,73.3642 374.004,73.0309 427.5,98C 481.981,129.781 510.147,177.281 512,240.5C 510.114,241.93 508.447,243.597 507,245.5C 505.518,250.108 504.351,254.775 503.5,259.5 Z"/></g>
<g><path style="opacity:1" fill="#362212" d="M 532.5,236.5 C 531.791,237.404 530.791,237.737 529.5,237.5C 529.714,233.743 528.714,233.076 526.5,235.5C 525.391,234.41 524.391,234.41 523.5,235.5C 525.567,235.93 527.234,237.43 528.5,240C 526.993,240.837 526.493,242.004 527,243.5C 527.837,241.993 529.004,241.493 530.5,242C 528.527,244.639 526.194,246.973 523.5,249C 526.849,249.089 527.349,250.256 525,252.5C 524.282,251.549 523.449,251.383 522.5,252C 526.642,254.235 530.975,256.235 535.5,258C 536.381,258.708 537.047,259.542 537.5,260.5C 533.269,258.644 528.935,256.977 524.5,255.5C 520.564,269.517 517.898,283.85 516.5,298.5C 515.628,294.651 515.461,290.651 516,286.5C 515.667,286.833 515.333,287.167 515,287.5C 513.55,285.243 512.383,282.91 511.5,280.5C 510.325,280.719 509.325,280.386 508.5,279.5C 510.765,278.353 513.098,278.186 515.5,279C 515.094,280.803 515.594,282.636 517,284.5C 517.417,280.075 518.251,275.742 519.5,271.5C 517.73,270.18 517.397,268.68 518.5,267C 517.809,265.933 517.309,264.766 517,263.5C 515.286,264.925 513.953,264.592 513,262.5C 512.085,263.328 511.419,264.328 511,265.5C 508.985,263.527 509.152,261.86 511.5,260.5C 511.291,259.914 510.957,259.414 510.5,259C 511.744,258.544 512.577,259.044 513,260.5C 513.167,260 513.333,259.5 513.5,259C 511.768,257.305 509.768,255.972 507.5,255C 508.449,254.383 509.282,254.549 510,255.5C 510.359,252.456 511.026,252.122 512,254.5C 514.048,252.494 513.548,251.494 510.5,251.5C 510.543,247.107 510.043,246.774 509,250.5C 508.667,249.833 508.333,249.167 508,248.5C 507.066,252.637 505.732,256.637 504,260.5C 503.601,260.272 503.435,259.938 503.5,259.5C 504.351,254.775 505.518,250.108 507,245.5C 508.447,243.597 510.114,241.93 512,240.5C 510.147,177.281 481.981,129.781 427.5,98C 374.004,73.0309 320.67,73.3642 267.5,99C 220.67,128.055 195.004,170.221 190.5,225.5C 189.674,229.982 189.174,234.649 189,239.5C 188.667,239.167 188.333,238.833 188,238.5C 187.5,239.667 186.667,240.5 185.5,241C 187.301,241.317 187.634,241.984 186.5,243C 185.5,243.667 184.5,243.667 183.5,243C 184.451,242.282 184.617,241.449 184,240.5C 183.097,241.701 181.931,242.535 180.5,243C 182.517,243.674 184.183,244.841 185.5,246.5C 186.086,246.291 186.586,245.957 187,245.5C 187.749,246.635 187.583,247.635 186.5,248.5C 184.958,247.253 183.458,247.253 182,248.5C 180.312,247.675 180.145,246.675 181.5,245.5C 179.887,244.573 178.221,243.739 176.5,243C 176.833,242.667 177.167,242.333 177.5,242C 175.9,240.392 174.567,238.559 173.5,236.5C 170.853,236.929 168.853,238.262 167.5,240.5C 166.808,239.975 166.308,239.308 166,238.5C 165,240.167 164,241.833 163,243.5C 163.453,241.546 163.62,239.713 163.5,238C 162.692,237.692 162.025,237.192 161.5,236.5C 163.113,236.968 164.613,236.301 166,234.5C 166.102,225.119 166.602,217.786 167.5,212.5C 167.5,220.5 167.5,228.5 167.5,236.5C 169.144,236.714 170.644,236.38 172,235.5C 172.182,222.71 173.515,210.044 176,197.5C 186.01,147.25 212.843,109.084 256.5,83C 319.708,50.9195 382.375,51.9195 444.5,86C 498.455,121.74 527.788,171.906 532.5,236.5 Z"/></g>
<g><path style="opacity:1" fill="#372313" d="M 320.5,228.5 C 314.954,230.543 309.288,232.21 303.5,233.5C 299.358,232.423 295.191,231.423 291,230.5C 287.625,230.966 284.458,231.966 281.5,233.5C 281.44,232.957 281.107,232.624 280.5,232.5C 276.018,235.818 271.185,238.485 266,240.5C 261.229,239.281 259.229,236.281 260,231.5C 263.718,227.727 267.884,224.56 272.5,222C 273.738,221.31 273.738,220.81 272.5,220.5C 282.199,213.868 292.533,212.868 303.5,217.5C 305.944,216.233 308.277,214.733 310.5,213C 325.483,197.876 335.983,180.042 342,159.5C 343.167,158.333 344.333,157.167 345.5,156C 353.111,154.636 357.111,157.803 357.5,165.5C 356.773,169.515 355.94,173.515 355,177.5C 347.954,197.615 336.454,214.615 320.5,228.5 Z"/></g>
<g><path style="opacity:1" fill="#f5e5cc" d="M 423.5,215.5 C 418.156,215.334 412.823,215.501 407.5,216C 399.187,217.952 396.687,222.785 400,230.5C 401.438,231.718 403.105,232.385 405,232.5C 412.774,229.402 420.274,229.902 427.5,234C 430.5,236.333 433.5,238.667 436.5,241C 438.598,241.678 440.598,241.511 442.5,240.5C 443.117,240.389 443.617,240.056 444,239.5C 444.988,236.576 445.654,233.576 446,230.5C 454.788,237.804 463.955,244.47 473.5,250.5C 475.275,252.457 477.941,254.123 481.5,255.5C 481.833,256.833 482.167,258.167 482.5,259.5C 483.085,271.659 483.751,283.659 484.5,295.5C 484.071,308.597 482.738,321.597 480.5,334.5C 477.371,354.588 469.038,372.088 455.5,387C 452.928,389.287 449.928,390.453 446.5,390.5C 441.304,386.441 435.304,384.774 428.5,385.5C 415.212,385.388 405.379,391.055 399,402.5C 397.819,408.065 398.986,413.065 402.5,417.5C 401.335,418.584 400.002,419.417 398.5,420C 355.22,430.793 313.553,426.46 273.5,407C 258.486,398.485 245.819,387.319 235.5,373.5C 227.391,358.842 222.058,343.176 219.5,326.5C 219.737,325.209 219.404,324.209 218.5,323.5C 218.806,320.615 218.473,317.948 217.5,315.5C 216.911,308.515 216.578,301.515 216.5,294.5C 216.229,278.805 216.563,263.138 217.5,247.5C 218.873,247.657 220.207,247.49 221.5,247C 229.045,243.396 236.378,239.563 243.5,235.5C 248.473,234.836 253.473,234.503 258.5,234.5C 260.58,241.2 264.914,243.033 271.5,240C 274.691,237.574 278.025,235.407 281.5,233.5C 284.458,231.966 287.625,230.966 291,230.5C 295.191,231.423 299.358,232.423 303.5,233.5C 309.288,232.21 314.954,230.543 320.5,228.5C 323.167,228.5 325.833,228.5 328.5,228.5C 326.709,237.202 330.209,241.536 339,241.5C 368.285,237.361 390.618,222.695 406,197.5C 408.921,192.659 411.588,187.659 414,182.5C 419.742,195.395 426.909,207.395 435.5,218.5C 435.167,218.833 434.833,219.167 434.5,219.5C 430.963,217.766 427.296,216.432 423.5,215.5 Z"/></g>
<g><path style="opacity:1" fill="#110804" d="M 153.5,189.5 C 154.16,190.964 154.493,192.631 154.5,194.5C 153.087,211.63 152.087,228.63 151.5,245.5C 151.036,226.769 151.703,208.102 153.5,189.5 Z"/></g>
<g><path style="opacity:1" fill="#1c1006" d="M 272.5,220.5 C 273.738,220.81 273.738,221.31 272.5,222C 267.884,224.56 263.718,227.727 260,231.5C 259.229,236.281 261.229,239.281 266,240.5C 271.185,238.485 276.018,235.818 280.5,232.5C 281.107,232.624 281.44,232.957 281.5,233.5C 278.025,235.407 274.691,237.574 271.5,240C 264.914,243.033 260.58,241.2 258.5,234.5C 258.343,233.127 258.51,231.793 259,230.5C 263.084,226.548 267.584,223.214 272.5,220.5 Z"/></g>
<g><path style="opacity:1" fill="#312318" d="M 549.5,209.5 C 550.254,222.142 550.754,234.808 551,247.5C 556.181,252.501 560.348,258.168 563.5,264.5C 558.926,258.387 554.092,252.387 549,246.5C 548.5,234.838 548.333,223.171 548.5,211.5C 548.328,210.508 548.662,209.842 549.5,209.5 Z"/></g>
<g><path style="opacity:1" fill="#382413" d="M 503.5,259.5 C 503.435,259.938 503.601,260.272 504,260.5C 505.732,256.637 507.066,252.637 508,248.5C 508.333,249.167 508.667,249.833 509,250.5C 510.043,246.774 510.543,247.107 510.5,251.5C 513.548,251.494 514.048,252.494 512,254.5C 511.026,252.122 510.359,252.456 510,255.5C 509.282,254.549 508.449,254.383 507.5,255C 509.768,255.972 511.768,257.305 513.5,259C 513.333,259.5 513.167,260 513,260.5C 512.577,259.044 511.744,258.544 510.5,259C 510.957,259.414 511.291,259.914 511.5,260.5C 509.152,261.86 508.985,263.527 511,265.5C 511.419,264.328 512.085,263.328 513,262.5C 513.953,264.592 515.286,264.925 517,263.5C 517.309,264.766 517.809,265.933 518.5,267C 517.397,268.68 517.73,270.18 519.5,271.5C 518.251,275.742 517.417,280.075 517,284.5C 515.594,282.636 515.094,280.803 515.5,279C 513.098,278.186 510.765,278.353 508.5,279.5C 509.325,280.386 510.325,280.719 511.5,280.5C 512.383,282.91 513.55,285.243 515,287.5C 515.333,287.167 515.667,286.833 516,286.5C 515.461,290.651 515.628,294.651 516.5,298.5C 513.847,313.721 512.181,329.055 511.5,344.5C 532.299,343.196 545.466,332.53 551,312.5C 555.318,297.912 553.984,283.912 547,270.5C 544.304,266.639 541.137,263.306 537.5,260.5C 537.047,259.542 536.381,258.708 535.5,258C 530.975,256.235 526.642,254.235 522.5,252C 523.449,251.383 524.282,251.549 525,252.5C 527.349,250.256 526.849,249.089 523.5,249C 526.194,246.973 528.527,244.639 530.5,242C 529.004,241.493 527.837,241.993 527,243.5C 526.493,242.004 526.993,240.837 528.5,240C 527.234,237.43 525.567,235.93 523.5,235.5C 524.391,234.41 525.391,234.41 526.5,235.5C 528.714,233.076 529.714,233.743 529.5,237.5C 530.791,237.737 531.791,237.404 532.5,236.5C 533.754,232.226 534.421,227.726 534.5,223C 533.695,216.841 533.528,210.674 534,204.5C 536.169,207.417 538.669,207.917 541.5,206C 541.279,204.201 540.946,202.368 540.5,200.5C 540.919,199.328 541.585,198.328 542.5,197.5C 543.807,198.816 545.307,199.816 547,200.5C 547.177,204.356 547.677,208.023 548.5,211.5C 548.333,223.171 548.5,234.838 549,246.5C 554.092,252.387 558.926,258.387 563.5,264.5C 566.455,268.679 568.455,273.346 569.5,278.5C 569.978,290.021 569.478,301.687 568,313.5C 566.067,323.031 562.233,331.698 556.5,339.5C 556.624,340.107 556.957,340.44 557.5,340.5C 549.435,351.133 538.935,358.466 526,362.5C 523.783,370.317 521.283,377.984 518.5,385.5C 517.561,383.601 517.061,380.268 517,375.5C 516.648,380.11 515.148,380.61 512.5,377C 513.9,375.562 515.567,374.729 517.5,374.5C 517.288,369.557 518.288,368.89 520.5,372.5C 522.454,368.808 524.121,364.974 525.5,361C 523.893,361.019 522.226,361.185 520.5,361.5C 520.5,360.5 520.5,359.5 520.5,358.5C 521.552,358.649 522.552,358.483 523.5,358C 522.354,357.355 521.354,356.522 520.5,355.5C 519.106,357.984 517.606,357.984 516,355.5C 515.5,355.667 515,355.833 514.5,356C 517.477,358.069 517.644,359.903 515,361.5C 512.904,360.285 513.071,359.451 515.5,359C 513.428,356.852 511.594,357.018 510,359.5C 507.586,358.572 505.086,358.739 502.5,360C 504.891,361.309 504.891,362.309 502.5,363C 504.382,363.198 506.048,363.698 507.5,364.5C 501.041,365.643 496.541,363.309 494,357.5C 489.257,367.906 484.424,378.239 479.5,388.5C 478.637,389.463 477.97,389.463 477.5,388.5C 479.998,383.521 482.665,378.521 485.5,373.5C 484.579,371.185 483.246,371.018 481.5,373C 482.308,373.308 482.975,373.808 483.5,374.5C 482.726,375.711 481.893,375.711 481,374.5C 480.781,375.938 480.281,377.271 479.5,378.5C 479.346,377.091 479.179,375.424 479,373.5C 478.25,372.874 477.416,372.374 476.5,372C 478.061,371.682 479.228,370.849 480,369.5C 480.308,370.308 480.808,370.975 481.5,371.5C 483.042,370.253 484.542,370.253 486,371.5C 486.167,371.167 486.333,370.833 486.5,370.5C 485.271,369.719 483.938,369.219 482.5,369C 483.833,368.333 483.833,367.667 482.5,367C 483.711,363.693 485.044,361.193 486.5,359.5C 484.43,359.449 482.597,360.115 481,361.5C 478.762,360.101 478.095,360.768 479,363.5C 480.545,362.179 481.711,362.512 482.5,364.5C 481.545,366.949 480.045,368.949 478,370.5C 476.56,367.703 475.06,365.703 473.5,364.5C 476.97,355.756 479.636,346.756 481.5,337.5C 481.48,336.274 481.147,335.274 480.5,334.5C 482.738,321.597 484.071,308.597 484.5,295.5C 484.667,282.163 484.5,268.829 484,255.5C 480.676,253.421 477.176,251.754 473.5,250.5C 463.955,244.47 454.788,237.804 446,230.5C 445.654,233.576 444.988,236.576 444,239.5C 443.617,240.056 443.117,240.389 442.5,240.5C 441.047,240.071 439.381,239.904 437.5,240C 432.807,235.653 427.473,232.319 421.5,230C 414.585,229.987 407.752,229.821 401,229.5C 398.736,222.08 401.57,218.247 409.5,218C 407.579,219.031 407.579,220.531 409.5,222.5C 409.911,221.738 410.077,220.738 410,219.5C 411.34,220.868 412.674,222.201 414,223.5C 414.5,223.167 415,222.833 415.5,222.5C 414.653,221.155 413.487,220.155 412,219.5C 411.383,218.551 411.549,217.718 412.5,217C 416.356,216.823 420.023,216.323 423.5,215.5C 427.296,216.432 430.963,217.766 434.5,219.5C 434.833,219.167 435.167,218.833 435.5,218.5C 426.909,207.395 419.742,195.395 414,182.5C 411.588,187.659 408.921,192.659 406,197.5C 390.618,222.695 368.285,237.361 339,241.5C 330.209,241.536 326.709,237.202 328.5,228.5C 330.01,227.164 331.677,225.997 333.5,225C 358.521,221.24 377.354,208.407 390,186.5C 397.442,172.506 403.108,157.84 407,142.5C 414.115,137.552 419.782,138.885 424,146.5C 432.569,192.403 458.236,224.736 501,243.5C 501.15,249.081 501.983,254.414 503.5,259.5 Z"/></g>
<g><path style="opacity:1" fill="#27190f" d="M 423.5,215.5 C 420.023,216.323 416.356,216.823 412.5,217C 411.549,217.718 411.383,218.551 412,219.5C 413.487,220.155 414.653,221.155 415.5,222.5C 415,222.833 414.5,223.167 414,223.5C 412.674,222.201 411.34,220.868 410,219.5C 410.077,220.738 409.911,221.738 409.5,222.5C 407.579,220.531 407.579,219.031 409.5,218C 401.57,218.247 398.736,222.08 401,229.5C 407.752,229.821 414.585,229.987 421.5,230C 427.473,232.319 432.807,235.653 437.5,240C 439.381,239.904 441.047,240.071 442.5,240.5C 440.598,241.511 438.598,241.678 436.5,241C 433.5,238.667 430.5,236.333 427.5,234C 420.274,229.902 412.774,229.402 405,232.5C 403.105,232.385 401.438,231.718 400,230.5C 396.687,222.785 399.187,217.952 407.5,216C 412.823,215.501 418.156,215.334 423.5,215.5 Z"/></g>
<g><path style="opacity:1" fill="#382313" d="M 243.5,235.5 C 236.378,239.563 229.045,243.396 221.5,247C 220.207,247.49 218.873,247.657 217.5,247.5C 216.563,263.138 216.229,278.805 216.5,294.5C 215.67,284.008 215.17,273.341 215,262.5C 214.333,275.167 214.333,287.833 215,300.5C 215.082,307.657 215.915,312.657 217.5,315.5C 218.473,317.948 218.806,320.615 218.5,323.5C 218.279,326.097 217.779,326.097 217,323.5C 216.682,325.061 215.849,326.228 214.5,327C 215.167,327.333 215.833,327.667 216.5,328C 215.128,328.402 213.795,328.902 212.5,329.5C 211.384,331.838 210.05,334.004 208.5,336C 209.061,337.676 210.061,339.009 211.5,340C 210.216,340.684 209.049,340.517 208,339.5C 207.626,340.416 207.126,341.25 206.5,342C 208.593,342.908 210.926,343.241 213.5,343C 210.772,345.77 211.106,348.27 214.5,350.5C 215.5,351.833 216.5,351.833 217.5,350.5C 217.833,351 218.167,351.5 218.5,352C 217.767,353.766 217.433,355.599 217.5,357.5C 214.763,357.37 212.763,358.536 211.5,361C 213.14,364.756 214.474,368.589 215.5,372.5C 212.775,367.378 210.275,362.045 208,356.5C 207.577,359.133 206.41,361.299 204.5,363C 195.167,363.667 185.833,363.667 176.5,363C 162.679,360.316 152.012,353.149 144.5,341.5C 140.499,334.832 136.999,327.832 134,320.5C 133.333,319.167 133.333,317.833 134,316.5C 134.29,318.044 134.956,319.377 136,320.5C 136.5,320 137,319.5 137.5,319C 136.15,317.282 134.983,315.448 134,313.5C 133.667,314.167 133.333,314.833 133,315.5C 131.462,309.937 130.462,304.27 130,298.5C 129.506,300.134 129.34,301.801 129.5,303.5C 128.346,297.013 128.179,290.346 129,283.5C 131.171,267.464 138.671,254.798 151.5,245.5C 152.087,228.63 153.087,211.63 154.5,194.5C 154.493,192.631 154.16,190.964 153.5,189.5C 153.263,188.209 153.596,187.209 154.5,186.5C 154.369,187.239 154.536,187.906 155,188.5C 156.147,181.901 157.98,175.568 160.5,169.5C 162.68,171.09 165.013,172.424 167.5,173.5C 168.145,174.732 168.311,176.065 168,177.5C 169.011,176.663 170.178,176.33 171.5,176.5C 171.773,174.549 171.107,173.049 169.5,172C 170.126,171.25 170.626,170.416 171,169.5C 171.333,169.833 171.667,170.167 172,170.5C 172.667,168.833 172.667,167.167 172,165.5C 171.667,165.833 171.333,166.167 171,166.5C 170.692,165.692 170.192,165.025 169.5,164.5C 168.833,166.5 168.167,168.5 167.5,170.5C 165.807,168.973 163.973,167.64 162,166.5C 161.667,167.167 161.333,167.833 161,168.5C 161.353,164.422 162.353,160.422 164,156.5C 164.519,155.484 165.353,154.818 166.5,154.5C 168.197,154.899 169.863,155.399 171.5,156C 169.939,156.318 168.772,157.151 168,158.5C 167.346,157.304 166.846,157.304 166.5,158.5C 167.729,159.281 169.062,159.781 170.5,160C 169.833,160.333 169.167,160.667 168.5,161C 170.387,164.035 172.887,165.202 176,164.5C 173.885,173.036 172.052,181.703 170.5,190.5C 169.494,197.971 168.494,205.305 167.5,212.5C 166.602,217.786 166.102,225.119 166,234.5C 164.613,236.301 163.113,236.968 161.5,236.5C 162.025,237.192 162.692,237.692 163.5,238C 163.62,239.713 163.453,241.546 163,243.5C 164,241.833 165,240.167 166,238.5C 166.308,239.308 166.808,239.975 167.5,240.5C 168.853,238.262 170.853,236.929 173.5,236.5C 174.567,238.559 175.9,240.392 177.5,242C 177.167,242.333 176.833,242.667 176.5,243C 178.221,243.739 179.887,244.573 181.5,245.5C 180.145,246.675 180.312,247.675 182,248.5C 183.458,247.253 184.958,247.253 186.5,248.5C 187.583,247.635 187.749,246.635 187,245.5C 186.586,245.957 186.086,246.291 185.5,246.5C 184.183,244.841 182.517,243.674 180.5,243C 181.931,242.535 183.097,241.701 184,240.5C 184.617,241.449 184.451,242.282 183.5,243C 184.5,243.667 185.5,243.667 186.5,243C 187.634,241.984 187.301,241.317 185.5,241C 186.667,240.5 187.5,239.667 188,238.5C 188.333,238.833 188.667,239.167 189,239.5C 189.174,234.649 189.674,229.982 190.5,225.5C 190.334,230.511 190.501,235.511 191,240.5C 192.385,241.551 193.385,242.884 194,244.5C 194.845,249.596 196.012,254.596 197.5,259.5C 198.776,252.175 199.943,244.842 201,237.5C 240.859,219.145 267.859,189.145 282,147.5C 283.167,146.333 284.333,145.167 285.5,144C 296.169,142.338 300.336,146.838 298,157.5C 287.065,188.593 268.899,214.593 243.5,235.5 Z"/></g>
<g><path style="opacity:1" fill="#fcf8f2" d="M 473.5,250.5 C 477.176,251.754 480.676,253.421 484,255.5C 484.5,268.829 484.667,282.163 484.5,295.5C 483.751,283.659 483.085,271.659 482.5,259.5C 482.167,258.167 481.833,256.833 481.5,255.5C 477.941,254.123 475.275,252.457 473.5,250.5 Z"/></g>
<g><path style="opacity:1" fill="#3b2613" d="M 412.5,263.5 C 420.409,261.623 426.076,264.29 429.5,271.5C 438.793,267.962 441.627,270.962 438,280.5C 436.846,281.743 435.512,282.743 434,283.5C 434.167,293.001 432.167,302.001 428,310.5C 420.108,318.585 412.442,318.251 405,309.5C 397.826,296.456 397.826,283.456 405,270.5C 407.396,267.933 409.896,265.6 412.5,263.5 Z"/></g>
<g><path style="opacity:1" fill="#392513" d="M 287.5,262.5 C 297.158,262.425 303.325,267.091 306,276.5C 309.278,289.105 307.278,300.772 300,311.5C 292.669,318.446 285.669,318.113 279,310.5C 274.542,301.71 272.709,292.377 273.5,282.5C 271.089,282.863 269.589,281.863 269,279.5C 268.333,276.5 268.333,273.5 269,270.5C 271.925,267.941 274.925,267.941 278,270.5C 280.772,267.217 283.939,264.55 287.5,262.5 Z"/></g>
<g><path style="opacity:1" fill="#150802" d="M 216.5,294.5 C 216.578,301.515 216.911,308.515 217.5,315.5C 215.915,312.657 215.082,307.657 215,300.5C 214.333,287.833 214.333,275.167 215,262.5C 215.17,273.341 215.67,284.008 216.5,294.5 Z"/></g>
<g><path style="opacity:1" fill="#9a7c5a" d="M 170.5,255.5 C 172.833,255.5 175.167,255.5 177.5,255.5C 181.96,285.355 186.294,315.188 190.5,345C 174.36,346.183 162.526,339.683 155,325.5C 146.885,308.624 145.552,291.291 151,273.5C 155.369,265.086 161.869,259.086 170.5,255.5 Z"/></g>
<g><path style="opacity:1" fill="#271b12" d="M 569.5,278.5 C 573.929,300.845 569.929,321.512 557.5,340.5C 556.957,340.44 556.624,340.107 556.5,339.5C 562.233,331.698 566.067,323.031 568,313.5C 569.478,301.687 569.978,290.021 569.5,278.5 Z"/></g>
<g><path style="opacity:1" fill="#3c2714" d="M 349.5,313.5 C 354.448,313.267 357.615,315.601 359,320.5C 360.149,329.337 356.316,332.504 347.5,330C 343.05,323.767 343.717,318.267 349.5,313.5 Z"/></g>
<g><path style="opacity:1" fill="#ebc99d" d="M 248.5,319.5 C 261.732,317.283 270.899,322.283 276,334.5C 277.463,350.035 270.463,358.702 255,360.5C 244.9,360.113 238.233,355.113 235,345.5C 232.61,333.128 237.11,324.461 248.5,319.5 Z"/></g>
<g><path style="opacity:1" fill="#9c7e5b" d="M 537.5,260.5 C 541.137,263.306 544.304,266.639 547,270.5C 553.984,283.912 555.318,297.912 551,312.5C 545.466,332.53 532.299,343.196 511.5,344.5C 512.181,329.055 513.847,313.721 516.5,298.5C 517.898,283.85 520.564,269.517 524.5,255.5C 528.935,256.977 533.269,258.644 537.5,260.5 Z"/></g>
<g><path style="opacity:1" fill="#26180d" d="M 144.5,341.5 C 142.549,340.284 141.049,338.618 140,336.5C 133.78,326.341 130.28,315.341 129.5,303.5C 129.34,301.801 129.506,300.134 130,298.5C 130.462,304.27 131.462,309.937 133,315.5C 133.333,314.833 133.667,314.167 134,313.5C 134.983,315.448 136.15,317.282 137.5,319C 137,319.5 136.5,320 136,320.5C 134.956,319.377 134.29,318.044 134,316.5C 133.333,317.833 133.333,319.167 134,320.5C 136.999,327.832 140.499,334.832 144.5,341.5 Z"/></g>
<g><path style="opacity:1" fill="#ecc99e" d="M 443.5,319.5 C 456.671,317.829 465.505,323.163 470,335.5C 471.556,347.884 466.389,356.05 454.5,360C 441.437,361.883 432.604,356.716 428,344.5C 426.576,332.005 431.743,323.672 443.5,319.5 Z"/></g>
<g><path style="opacity:1" fill="#2a190c" d="M 387.5,369.5 C 388.617,364.808 388.617,360.141 387.5,355.5C 384.886,354.031 382.052,353.364 379,353.5C 359.511,354.264 340.011,354.764 320.5,355C 319.856,359.934 319.19,364.767 318.5,369.5C 317.603,364.86 317.436,360.194 318,355.5C 318.833,354.667 319.667,353.833 320.5,353C 342.5,352.333 364.5,352.333 386.5,353C 387.667,353.5 388.5,354.333 389,355.5C 389.167,357.333 389.333,359.167 389.5,361C 389.64,364.15 388.973,366.983 387.5,369.5 Z"/></g>
<g><path style="opacity:1" fill="#24170e" d="M 219.5,326.5 C 222.058,343.176 227.391,358.842 235.5,373.5C 231.939,369.397 229.106,364.73 227,359.5C 223.154,349.614 220.32,339.447 218.5,329C 218.528,327.93 218.861,327.097 219.5,326.5 Z"/></g>
<g><path style="opacity:1" fill="#3e2814" d="M 387.5,369.5 C 384.523,384.303 376.19,394.803 362.5,401C 338.421,404.095 323.755,393.595 318.5,369.5C 319.19,364.767 319.856,359.934 320.5,355C 340.011,354.764 359.511,354.264 379,353.5C 382.052,353.364 384.886,354.031 387.5,355.5C 388.617,360.141 388.617,364.808 387.5,369.5 Z"/></g>
<g><path style="opacity:1" fill="#23160c" d="M 480.5,334.5 C 481.147,335.274 481.48,336.274 481.5,337.5C 479.636,346.756 476.97,355.756 473.5,364.5C 468.957,373.062 463.29,380.895 456.5,388C 454.833,389 453.167,390 451.5,391C 449.613,391.78 447.946,391.613 446.5,390.5C 449.928,390.453 452.928,389.287 455.5,387C 469.038,372.088 477.371,354.588 480.5,334.5 Z"/></g>
<g><path style="opacity:1" fill="#3e2814" d="M 658.5,419.5 C 655.342,433.306 651.009,446.639 645.5,459.5C 644.833,459.833 644.167,460.167 643.5,460.5C 643.44,459.957 643.107,459.624 642.5,459.5C 639.618,460.961 636.618,462.127 633.5,463C 626.321,463.171 619.321,463.671 612.5,464.5C 610.785,473.364 608.451,482.031 605.5,490.5C 600.554,491.614 595.554,491.781 590.5,491C 589.02,489.701 588.354,488.034 588.5,486C 593.285,461.222 597.785,436.388 602,411.5C 602.785,409.714 603.951,408.214 605.5,407C 619.214,406.094 632.881,406.427 646.5,408C 652.087,410.273 656.087,414.106 658.5,419.5 Z"/></g>
<g><path style="opacity:1" fill="#f8ecd8" d="M 640.5,433.5 C 639.811,439.393 636.811,443.559 631.5,446C 626.177,446.499 620.844,446.666 615.5,446.5C 615.833,444.5 616.167,442.5 616.5,440.5C 616.95,435.798 617.617,431.132 618.5,426.5C 619.404,425.791 619.737,424.791 619.5,423.5C 625.593,423.139 631.593,423.639 637.5,425C 640.124,427.153 641.124,429.987 640.5,433.5 Z"/></g>
<g><path style="opacity:1" fill="#130401" d="M 618.5,426.5 C 617.617,431.132 616.95,435.798 616.5,440.5C 615.748,435.254 616.248,429.92 618,424.5C 618.464,425.094 618.631,425.761 618.5,426.5 Z"/></g>
<g><path style="opacity:1" fill="#160801" d="M 615.5,446.5 C 620.844,446.666 626.177,446.499 631.5,446C 636.811,443.559 639.811,439.393 640.5,433.5C 641.302,432.048 641.802,430.382 642,428.5C 642.578,434.767 640.744,440.267 636.5,445C 635.167,445.667 633.833,446.333 632.5,447C 626.651,447.818 620.985,447.652 615.5,446.5 Z"/></g>
<g><path style="opacity:1" fill="#3d2814" d="M 218.5,323.5 C 219.404,324.209 219.737,325.209 219.5,326.5C 218.861,327.097 218.528,327.93 218.5,329C 220.32,339.447 223.154,349.614 227,359.5C 229.106,364.73 231.939,369.397 235.5,373.5C 245.819,387.319 258.486,398.485 273.5,407C 313.553,426.46 355.22,430.793 398.5,420C 400.002,419.417 401.335,418.584 402.5,417.5C 398.986,413.065 397.819,408.065 399,402.5C 405.379,391.055 415.212,385.388 428.5,385.5C 435.304,384.774 441.304,386.441 446.5,390.5C 447.946,391.613 449.613,391.78 451.5,391C 453.167,390 454.833,389 456.5,388C 463.29,380.895 468.957,373.062 473.5,364.5C 475.06,365.703 476.56,367.703 478,370.5C 480.045,368.949 481.545,366.949 482.5,364.5C 481.711,362.512 480.545,362.179 479,363.5C 478.095,360.768 478.762,360.101 481,361.5C 482.597,360.115 484.43,359.449 486.5,359.5C 485.044,361.193 483.711,363.693 482.5,367C 483.833,367.667 483.833,368.333 482.5,369C 483.938,369.219 485.271,369.719 486.5,370.5C 486.333,370.833 486.167,371.167 486,371.5C 484.542,370.253 483.042,370.253 481.5,371.5C 480.808,370.975 480.308,370.308 480,369.5C 479.228,370.849 478.061,371.682 476.5,372C 477.416,372.374 478.25,372.874 479,373.5C 479.179,375.424 479.346,377.091 479.5,378.5C 480.281,377.271 480.781,375.938 481,374.5C 481.893,375.711 482.726,375.711 483.5,374.5C 482.975,373.808 482.308,373.308 481.5,373C 483.246,371.018 484.579,371.185 485.5,373.5C 482.665,378.521 479.998,383.521 477.5,388.5C 477.97,389.463 478.637,389.463 479.5,388.5C 493.196,386.174 502.529,378.174 507.5,364.5C 506.048,363.698 504.382,363.198 502.5,363C 504.891,362.309 504.891,361.309 502.5,360C 505.086,358.739 507.586,358.572 510,359.5C 511.594,357.018 513.428,356.852 515.5,359C 513.071,359.451 512.904,360.285 515,361.5C 517.644,359.903 517.477,358.069 514.5,356C 515,355.833 515.5,355.667 516,355.5C 517.606,357.984 519.106,357.984 520.5,355.5C 521.354,356.522 522.354,357.355 523.5,358C 522.552,358.483 521.552,358.649 520.5,358.5C 520.5,359.5 520.5,360.5 520.5,361.5C 522.226,361.185 523.893,361.019 525.5,361C 524.121,364.974 522.454,368.808 520.5,372.5C 518.288,368.89 517.288,369.557 517.5,374.5C 515.567,374.729 513.9,375.562 512.5,377C 515.148,380.61 516.648,380.11 517,375.5C 517.061,380.268 517.561,383.601 518.5,385.5C 521.734,393.433 523.901,401.766 525,410.5C 528.552,440.708 518.719,465.375 495.5,484.5C 505.861,497.558 514.195,511.891 520.5,527.5C 524.775,527.92 527.609,525.92 529,521.5C 538.075,472.79 547.409,424.123 557,375.5C 559.19,367.483 564.024,361.817 571.5,358.5C 598.134,357.252 624.967,357.252 652,358.5C 655.27,357.868 658.437,357.201 661.5,356.5C 664.167,356.5 666.833,356.5 669.5,356.5C 669.5,357.833 669.5,359.167 669.5,360.5C 668.659,365.01 667.992,369.676 667.5,374.5C 638.165,374.333 608.831,374.5 579.5,375C 578,376.5 576.5,378 575,379.5C 565.201,426.031 556.035,472.697 547.5,519.5C 547.511,521.017 548.177,522.184 549.5,523C 570.164,523.5 590.831,523.667 611.5,523.5C 607.853,529.14 603.853,534.473 599.5,539.5C 578.164,539.333 556.831,539.5 535.5,540C 515.498,549.147 496.165,559.314 477.5,570.5C 476.537,571.363 476.537,572.03 477.5,572.5C 508.79,571.508 540.123,571.174 571.5,571.5C 561.415,582.255 550.415,591.921 538.5,600.5C 538.5,597.5 538.5,594.5 538.5,591.5C 516.66,591.169 494.994,591.503 473.5,592.5C 472.167,595.167 472.167,597.833 473.5,600.5C 479.612,611.945 488.612,620.278 500.5,625.5C 494.857,629.325 488.857,632.658 482.5,635.5C 478.209,632.222 473.876,628.888 469.5,625.5C 468.05,630.041 467.217,634.708 467,639.5C 463.52,643.401 459.353,644.401 454.5,642.5C 453.4,641.395 452.733,640.062 452.5,638.5C 453.794,623.185 454.794,607.852 455.5,592.5C 441.649,596.451 435.149,591.451 436,577.5C 436.883,574.898 438.383,572.731 440.5,571C 446.078,568.294 451.578,565.461 457,562.5C 456.847,550.49 456.514,538.49 456,526.5C 457.529,523.484 460.029,522.151 463.5,522.5C 466.325,522.119 468.491,523.119 470,525.5C 472.055,534.371 473.222,543.371 473.5,552.5C 478.602,550.783 483.602,548.783 488.5,546.5C 493.587,544.634 498.587,542.467 503.5,540C 504.899,538.938 505.899,537.605 506.5,536C 504.328,528.492 500.995,521.659 496.5,515.5C 487.173,498.336 474.173,484.503 457.5,474C 447.626,469.209 437.626,464.709 427.5,460.5C 427.816,475.835 424.316,490.168 417,503.5C 413.942,507.062 410.442,510.062 406.5,512.5C 413.911,518.411 420.078,525.411 425,533.5C 425.935,540.761 423.935,547.094 419,552.5C 411.086,560.418 402.586,567.585 393.5,574C 385.527,577.167 378.694,575.667 373,569.5C 365.123,556.413 358.29,542.747 352.5,528.5C 344.746,543.007 337.246,557.674 330,572.5C 326.155,575.92 321.655,577.087 316.5,576C 312.172,574.171 308.172,571.838 304.5,569C 298.096,562.718 291.596,556.551 285,550.5C 278.561,541.331 279.228,532.665 287,524.5C 291.199,519.966 295.699,515.799 300.5,512C 289.085,505.901 282.251,496.401 280,483.5C 279.015,475.8 277.848,468.133 276.5,460.5C 254.855,468.334 236.688,481 222,498.5C 211.248,514.986 203.581,532.653 199,551.5C 200.273,555.153 201.44,558.819 202.5,562.5C 199.859,572.322 194.692,573.989 187,567.5C 181.118,551.349 174.951,535.349 168.5,519.5C 150.166,527.499 131.499,534.666 112.5,541C 111.941,541.725 111.608,542.558 111.5,543.5C 117.321,563.299 124.321,582.632 132.5,601.5C 122.914,594.917 113.914,587.584 105.5,579.5C 101.668,567.507 97.8347,555.507 94,543.5C 91.6958,535.85 93.8625,530.017 100.5,526C 99.5447,522.901 98.7114,519.734 98,516.5C 85.4333,509.934 75.4333,500.601 68,488.5C 61.9319,476.697 57.2652,464.364 54,451.5C 46.1446,438.456 38.8112,425.123 32,411.5C 30.5158,405.235 30.1824,398.902 31,392.5C 34.9939,382.92 42.1606,378.586 52.5,379.5C 52.1312,376.681 51.7978,373.848 51.5,371C 52.9688,353.666 61.9688,347.166 78.5,351.5C 81.3571,347.654 84.3571,343.82 87.5,340C 90.4282,337.746 93.7616,336.579 97.5,336.5C 108.708,337.532 115.875,343.532 119,354.5C 121.169,366.172 124.502,377.506 129,388.5C 132.237,386.42 135.737,384.92 139.5,384C 146.679,383.179 153.679,383.345 160.5,384.5C 174.2,389.109 182.367,399.109 185,414.5C 185.464,413.906 185.631,413.239 185.5,412.5C 186.308,414.22 187.308,415.887 188.5,417.5C 196.506,429.036 198.673,441.703 195,455.5C 193.317,461.386 191.151,467.053 188.5,472.5C 184.509,480.469 179.509,487.802 173.5,494.5C 175.895,496.944 178.062,499.61 180,502.5C 182.398,509.626 185.565,516.293 189.5,522.5C 195.746,510.34 202.246,498.34 209,486.5C 218.39,474.103 229.89,464.269 243.5,457C 258.382,450.059 273.382,443.392 288.5,437C 289.38,435.644 289.714,434.144 289.5,432.5C 272.637,427.569 257.304,419.736 243.5,409C 230.924,399.265 221.59,387.098 215.5,372.5C 214.474,368.589 213.14,364.756 211.5,361C 212.763,358.536 214.763,357.37 217.5,357.5C 217.433,355.599 217.767,353.766 218.5,352C 218.167,351.5 217.833,351 217.5,350.5C 216.5,351.833 215.5,351.833 214.5,350.5C 211.106,348.27 210.772,345.77 213.5,343C 210.926,343.241 208.593,342.908 206.5,342C 207.126,341.25 207.626,340.416 208,339.5C 209.049,340.517 210.216,340.684 211.5,340C 210.061,339.009 209.061,337.676 208.5,336C 210.05,334.004 211.384,331.838 212.5,329.5C 213.795,328.902 215.128,328.402 216.5,328C 215.833,327.667 215.167,327.333 214.5,327C 215.849,326.228 216.682,325.061 217,323.5C 217.779,326.097 218.279,326.097 218.5,323.5 Z"/></g>
<g><path style="opacity:1" fill="#140702" d="M 404.5,449.5 C 408.562,450.062 410.729,452.396 411,456.5C 411.822,464.555 411.488,472.555 410,480.5C 409.536,479.906 409.369,479.239 409.5,478.5C 410.962,470.125 410.795,461.792 409,453.5C 407.333,452.267 405.833,450.933 404.5,449.5 Z"/></g>
<g><path style="opacity:1" fill="#261a11" d="M 188.5,417.5 C 189.794,418.29 190.961,419.29 192,420.5C 200.217,435.231 200.551,450.231 193,465.5C 191.974,468.239 190.474,470.572 188.5,472.5C 191.151,467.053 193.317,461.386 195,455.5C 198.673,441.703 196.506,429.036 188.5,417.5 Z"/></g>
<g><path style="opacity:1" fill="#f7e9d2" d="M 96.5,353.5 C 99.6421,353.799 101.809,355.466 103,358.5C 107.927,373.54 111.593,388.874 114,404.5C 115.221,413.072 119.721,415.572 127.5,412C 137.293,399.794 149.293,397.128 163.5,404C 167.462,407.043 169.128,410.876 168.5,415.5C 167.452,416.383 166.285,417.05 165,417.5C 148.982,408.592 137.316,412.592 130,429.5C 128.934,448.434 137.767,457.268 156.5,456C 167.466,451.163 172.466,442.663 171.5,430.5C 175.276,427.372 178.11,428.039 180,432.5C 181.435,442.569 180.101,452.236 176,461.5C 169.52,472.654 161.52,482.654 152,491.5C 151.333,494.167 151.333,496.833 152,499.5C 153.028,501.844 153.694,504.177 154,506.5C 142.062,512.646 129.562,517.313 116.5,520.5C 116.509,515.029 115.009,510.029 112,505.5C 105.92,501.21 99.7531,497.043 93.5,493C 86.7621,486.251 81.5954,478.418 78,469.5C 75.6667,461.5 73.3333,453.5 71,445.5C 63.2685,433.428 55.9352,421.095 49,408.5C 47.5951,404.928 47.2617,401.261 48,397.5C 50.5402,396.124 52.5402,396.79 54,399.5C 60.6256,411.925 68.1256,423.758 76.5,435C 85.0438,438.322 88.8771,435.489 88,426.5C 78.8839,411.601 72.5505,395.601 69,378.5C 68.3333,375.167 68.3333,371.833 69,368.5C 70.3957,366.473 72.0624,366.14 74,367.5C 81.057,383.338 87.7237,399.338 94,415.5C 99.4842,421.405 103.318,420.572 105.5,413C 102.078,397.481 98.5785,381.981 95,366.5C 93.9784,361.871 94.4784,357.538 96.5,353.5 Z"/></g>
<g><path style="opacity:1" fill="#f4e5cd" d="M 300.5,449.5 C 301.978,449.238 303.311,449.571 304.5,450.5C 312.79,463.124 323.123,473.79 335.5,482.5C 328.769,488.714 321.103,493.547 312.5,497C 306.437,497.548 301.937,495.048 299,489.5C 294.619,478.213 292.952,466.547 294,454.5C 296.326,452.934 298.492,451.268 300.5,449.5 Z"/></g>
<g><path style="opacity:1" fill="#f4e4cc" d="M 404.5,449.5 C 405.833,450.933 407.333,452.267 409,453.5C 410.795,461.792 410.962,470.125 409.5,478.5C 408.504,485.294 405.504,491.127 400.5,496C 399.127,496.875 397.627,497.375 396,497.5C 386.497,493.666 377.664,488.666 369.5,482.5C 382.59,473.411 393.257,462.078 401.5,448.5C 402.417,449.127 403.417,449.461 404.5,449.5 Z"/></g>
<g><path style="opacity:1" fill="#f4e4cc" d="M 330.5,441.5 C 341.81,442.356 353.143,442.69 364.5,442.5C 371.136,441.552 377.803,440.885 384.5,440.5C 384.453,443.928 383.287,446.928 381,449.5C 372.936,458.925 363.269,465.925 352,470.5C 349.007,469.871 346.173,468.704 343.5,467C 335.735,461.239 328.569,454.739 322,447.5C 320.589,445.35 319.755,443.016 319.5,440.5C 323.215,440.423 326.881,440.756 330.5,441.5 Z"/></g>
<g><path style="opacity:1" fill="#160903" d="M 330.5,441.5 C 332.304,440.838 334.304,440.505 336.5,440.5C 346.002,440.988 355.335,441.655 364.5,442.5C 353.143,442.69 341.81,442.356 330.5,441.5 Z"/></g>
<g><path style="opacity:1" fill="#ca9a6a" d="M 501.5,396.5 C 503.614,397.36 504.78,399.027 505,401.5C 509.996,420.682 507.996,439.015 499,456.5C 494.554,462.106 489.054,466.439 482.5,469.5C 477.103,465.439 471.436,461.773 465.5,458.5C 465.167,457.5 464.833,456.5 464.5,455.5C 466.276,440.894 466.943,426.227 466.5,411.5C 477.826,409.557 488.493,405.724 498.5,400C 499.71,398.961 500.71,397.794 501.5,396.5 Z"/></g>
<g><path style="opacity:1" fill="#f4e8d2" d="M 148.5,427.5 C 155.382,427.887 157.882,431.553 156,438.5C 151.601,442.654 147.601,442.321 144,437.5C 143.438,433.232 144.938,429.898 148.5,427.5 Z"/></g>
<g><path style="opacity:1" fill="#f9f1e3" d="M 447.5,427.5 C 448.818,430.258 449.485,433.424 449.5,437C 449.393,441.201 449.06,445.368 448.5,449.5C 437.546,446.194 426.879,442.028 416.5,437C 415.409,434.936 415.242,432.769 416,430.5C 425.519,433.308 435.019,433.141 444.5,430C 445.942,429.623 446.942,428.79 447.5,427.5 Z"/></g>
<g><path style="opacity:1" fill="#25180e" d="M 160.5,384.5 C 175.159,388.16 183.492,397.493 185.5,412.5C 185.631,413.239 185.464,413.906 185,414.5C 182.367,399.109 174.2,389.109 160.5,384.5 Z"/></g>
<g><path style="opacity:1" fill="#e7c598" d="M 368.5,365.5 C 369.833,365.5 371.167,365.5 372.5,365.5C 372.29,375.055 367.957,382.555 359.5,388C 351.269,391.274 344.436,389.44 339,382.5C 336.018,378.202 333.851,373.536 332.5,368.5C 344.299,366.84 356.299,365.84 368.5,365.5 Z"/></g>
<g><path style="opacity:1" fill="#ca9a6a" d="M 507.5,364.5 C 502.529,378.174 493.196,386.174 479.5,388.5C 484.424,378.239 489.257,367.906 494,357.5C 496.541,363.309 501.041,365.643 507.5,364.5 Z"/></g>
<g><path style="opacity:1" fill="#b18b5c" d="M 332.5,365.5 C 344.5,365.5 356.5,365.5 368.5,365.5C 356.299,365.84 344.299,366.84 332.5,368.5C 331.167,367.5 331.167,366.5 332.5,365.5 Z"/></g>
<g><path style="opacity:1" fill="#150600" d="M 372.5,365.5 C 371.167,365.5 369.833,365.5 368.5,365.5C 356.5,365.5 344.5,365.5 332.5,365.5C 346.38,364.617 360.38,364.117 374.5,364C 373.584,364.278 372.918,364.778 372.5,365.5 Z"/></g>
<g><path style="opacity:1" fill="#150601" d="M 661.5,356.5 C 658.437,357.201 655.27,357.868 652,358.5C 624.967,357.252 598.134,357.252 571.5,358.5C 572.473,358.013 573.473,357.513 574.5,357C 603.498,356.5 632.498,356.333 661.5,356.5 Z"/></g>
<g><path style="opacity:1" fill="#f8ebd5" d="M 667.5,374.5 C 665.887,389.898 662.887,404.898 658.5,419.5C 656.087,414.106 652.087,410.273 646.5,408C 632.881,406.427 619.214,406.094 605.5,407C 603.951,408.214 602.785,409.714 602,411.5C 597.785,436.388 593.285,461.222 588.5,486C 588.354,488.034 589.02,489.701 590.5,491C 595.554,491.781 600.554,491.614 605.5,490.5C 608.451,482.031 610.785,473.364 612.5,464.5C 620.174,464.666 627.841,464.5 635.5,464C 638.237,462.924 640.904,461.757 643.5,460.5C 644.167,460.167 644.833,459.833 645.5,459.5C 636.837,481.83 625.837,502.83 612.5,522.5C 591.831,522.667 571.164,522.5 550.5,522C 549.627,520.955 548.627,520.122 547.5,519.5C 556.035,472.697 565.201,426.031 575,379.5C 576.5,378 578,376.5 579.5,375C 608.831,374.5 638.165,374.333 667.5,374.5 Z"/></g>
<g><path style="opacity:1" fill="#160c06" d="M 643.5,460.5 C 640.904,461.757 638.237,462.924 635.5,464C 627.841,464.5 620.174,464.666 612.5,464.5C 619.321,463.671 626.321,463.171 633.5,463C 636.618,462.127 639.618,460.961 642.5,459.5C 643.107,459.624 643.44,459.957 643.5,460.5 Z"/></g>
<g><path style="opacity:1" fill="#27180c" d="M 496.5,515.5 C 500.995,521.659 504.328,528.492 506.5,536C 505.899,537.605 504.899,538.938 503.5,540C 498.587,542.467 493.587,544.634 488.5,546.5C 493.326,543.162 498.492,540.162 504,537.5C 504.667,535.833 504.667,534.167 504,532.5C 501.488,526.812 498.988,521.145 496.5,515.5 Z"/></g>
<g><path style="opacity:1" fill="#110300" d="M 547.5,519.5 C 548.627,520.122 549.627,520.955 550.5,522C 571.164,522.5 591.831,522.667 612.5,522.5C 612.5,523.167 612.167,523.5 611.5,523.5C 590.831,523.667 570.164,523.5 549.5,523C 548.177,522.184 547.511,521.017 547.5,519.5 Z"/></g>
<g><path style="opacity:1" fill="#9f815c" d="M 599.5,539.5 C 591.59,550.746 582.59,561.079 572.5,570.5C 540.833,570.5 509.167,570.5 477.5,570.5C 496.165,559.314 515.498,549.147 535.5,540C 556.831,539.5 578.164,539.333 599.5,539.5 Z"/></g>
<g><path style="opacity:1" fill="#210f03" d="M 477.5,570.5 C 509.167,570.5 540.833,570.5 572.5,570.5C 572.5,571.167 572.167,571.5 571.5,571.5C 540.123,571.174 508.79,571.508 477.5,572.5C 476.537,572.03 476.537,571.363 477.5,570.5 Z"/></g>
<g><path style="opacity:1" fill="#a07c53" d="M 473.5,592.5 C 494.994,591.503 516.66,591.169 538.5,591.5C 538.5,594.5 538.5,597.5 538.5,600.5C 538.5,601.167 538.167,601.5 537.5,601.5C 537.5,598.5 537.5,595.5 537.5,592.5C 516.167,592.5 494.833,592.5 473.5,592.5 Z"/></g>
<g><path style="opacity:1" fill="#f7e9bf" d="M 473.5,592.5 C 494.833,592.5 516.167,592.5 537.5,592.5C 537.5,595.5 537.5,598.5 537.5,601.5C 537.167,601.5 536.833,601.5 536.5,601.5C 536.5,598.833 536.5,596.167 536.5,593.5C 515.833,593.5 495.167,593.5 474.5,593.5C 474.802,596.059 474.468,598.393 473.5,600.5C 472.167,597.833 472.167,595.167 473.5,592.5 Z"/></g>
<g><path style="opacity:1" fill="#e3c59d" d="M 496.5,515.5 C 498.988,521.145 501.488,526.812 504,532.5C 504.667,534.167 504.667,535.833 504,537.5C 498.492,540.162 493.326,543.162 488.5,546.5C 483.602,548.783 478.602,550.783 473.5,552.5C 473.222,543.371 472.055,534.371 470,525.5C 468.491,523.119 466.325,522.119 463.5,522.5C 460.029,522.151 457.529,523.484 456,526.5C 456.514,538.49 456.847,550.49 457,562.5C 451.578,565.461 446.078,568.294 440.5,571C 438.383,572.731 436.883,574.898 436,577.5C 435.149,591.451 441.649,596.451 455.5,592.5C 454.794,607.852 453.794,623.185 452.5,638.5C 451.698,637.048 451.198,635.382 451,633.5C 450.153,636.588 450.653,639.421 452.5,642C 386.168,642.5 319.834,642.667 253.5,642.5C 255.016,640.801 256.016,638.801 256.5,636.5C 249.56,600.416 247.727,564.082 251,527.5C 246.133,520.925 241.133,520.925 236,527.5C 233.316,549.752 231.983,572.086 232,594.5C 223.797,604.37 214.631,613.203 204.5,621C 195.775,626.963 186.108,629.796 175.5,629.5C 159.964,621.906 145.631,612.573 132.5,601.5C 124.321,582.632 117.321,563.299 111.5,543.5C 111.608,542.558 111.941,541.725 112.5,541C 131.499,534.666 150.166,527.499 168.5,519.5C 174.951,535.349 181.118,551.349 187,567.5C 194.692,573.989 199.859,572.322 202.5,562.5C 201.44,558.819 200.273,555.153 199,551.5C 203.581,532.653 211.248,514.986 222,498.5C 236.688,481 254.855,468.334 276.5,460.5C 277.848,468.133 279.015,475.8 280,483.5C 282.251,496.401 289.085,505.901 300.5,512C 295.699,515.799 291.199,519.966 287,524.5C 279.228,532.665 278.561,541.331 285,550.5C 291.596,556.551 298.096,562.718 304.5,569C 308.172,571.838 312.172,574.171 316.5,576C 321.655,577.087 326.155,575.92 330,572.5C 337.246,557.674 344.746,543.007 352.5,528.5C 358.29,542.747 365.123,556.413 373,569.5C 378.694,575.667 385.527,577.167 393.5,574C 402.586,567.585 411.086,560.418 419,552.5C 423.935,547.094 425.935,540.761 425,533.5C 420.078,525.411 413.911,518.411 406.5,512.5C 410.442,510.062 413.942,507.062 417,503.5C 424.316,490.168 427.816,475.835 427.5,460.5C 437.626,464.709 447.626,469.209 457.5,474C 474.173,484.503 487.173,498.336 496.5,515.5 Z"/></g>
<g><path style="opacity:1" fill="#d6aa7a" d="M 325.5,509.5 C 326.978,509.238 328.311,509.571 329.5,510.5C 331.849,514.538 334.183,518.538 336.5,522.5C 331.516,535.313 325.682,547.646 319,559.5C 312.844,554.681 306.678,549.847 300.5,545C 298.848,543.53 297.848,541.697 297.5,539.5C 299.147,535.541 301.314,531.875 304,528.5C 310.47,521.186 317.637,514.852 325.5,509.5 Z"/></g>
<g><path style="opacity:1" fill="#d5a978" d="M 375.5,507.5 C 388.549,515.379 399.549,525.546 408.5,538C 403.516,547.653 396.016,554.486 386,558.5C 384.11,558.215 382.777,557.215 382,555.5C 376.09,544.922 371.256,533.922 367.5,522.5C 370.922,517.901 373.588,512.901 375.5,507.5 Z"/></g>
<g><path style="opacity:1" fill="#cfae84" d="M 349.5,492.5 C 353.689,492.182 356.855,493.848 359,497.5C 359.667,501.167 359.667,504.833 359,508.5C 354.333,515.167 349.667,515.167 345,508.5C 344.333,504.833 344.333,501.167 345,497.5C 346.025,495.313 347.525,493.646 349.5,492.5 Z"/></g>
<g><path style="opacity:1" fill="#e3c49c" d="M 536.5,601.5 C 525.54,610.985 513.54,618.985 500.5,625.5C 488.612,620.278 479.612,611.945 473.5,600.5C 474.468,598.393 474.802,596.059 474.5,593.5C 495.167,593.5 515.833,593.5 536.5,593.5C 536.5,596.167 536.5,598.833 536.5,601.5 Z"/></g>
<g><path style="opacity:1" fill="#3e2814" d="M 253.5,642.5 C 252.833,642.5 252.5,642.833 252.5,643.5C 249.482,643.665 246.482,643.498 243.5,643C 242.667,642.167 241.833,641.333 241,640.5C 239.462,631.812 237.796,623.146 236,614.5C 226.425,626.53 214.591,635.53 200.5,641.5C 191.732,638.282 183.399,634.282 175.5,629.5C 186.108,629.796 195.775,626.963 204.5,621C 214.631,613.203 223.797,604.37 232,594.5C 231.983,572.086 233.316,549.752 236,527.5C 241.133,520.925 246.133,520.925 251,527.5C 247.727,564.082 249.56,600.416 256.5,636.5C 256.016,638.801 255.016,640.801 253.5,642.5 Z"/></g>
<g><path style="opacity:1" fill="#fcf3e3" d="M 252.5,643.5 C 319.904,643.83 387.238,643.496 454.5,642.5C 459.353,644.401 463.52,643.401 467,639.5C 467.217,634.708 468.05,630.041 469.5,625.5C 473.876,628.888 478.209,632.222 482.5,635.5C 443.836,654.33 403.169,665.664 360.5,669.5C 343.167,669.5 325.833,669.5 308.5,669.5C 270.967,666.117 234.967,656.783 200.5,641.5C 214.591,635.53 226.425,626.53 236,614.5C 237.796,623.146 239.462,631.812 241,640.5C 241.833,641.333 242.667,642.167 243.5,643C 246.482,643.498 249.482,643.665 252.5,643.5 Z"/></g>
<g><path style="opacity:1" fill="#f5e6ce" d="M 452.5,638.5 C 452.733,640.062 453.4,641.395 454.5,642.5C 387.238,643.496 319.904,643.83 252.5,643.5C 252.5,642.833 252.833,642.5 253.5,642.5C 319.834,642.667 386.168,642.5 452.5,642C 450.653,639.421 450.153,636.588 451,633.5C 451.198,635.382 451.698,637.048 452.5,638.5 Z"/></g>
</svg>
